{
  "song": "Pirates of the Caribbean - He's a Pirate",
  "notes": [
    {
      "time": 0.0,
      "lane": 2,
      "pitch": 62,
      "velocity": 110
    },
    {
      "time": 1.0,
      "lane": 2,
      "pitch": 62,
      "velocity": 110
    },
    {
      "time": 1.5,
      "lane": 2,
      "pitch": 62,
      "velocity": 110
    },
    {
      "time": 2.5,
      "lane": 2,
      "pitch": 62,
      "velocity": 110
    },
    {
      "time": 3.0,
      "lane": 2,
      "pitch": 62,
      "velocity": 110
    },
    {
      "time": 4.0,
      "lane": 2,
      "pitch": 62,
      "velocity": 110
    },
    {
      "time": 4.5,
      "lane": 2,
      "pitch": 62,
      "velocity": 110
    },
    {
      "time": 5.0,
      "lane": 2,
      "pitch": 62,
      "velocity": 110
    },
    {
      "time": 5.5,
      "lane": 2,
      "pitch": 62,
      "velocity": 110
    },
    {
      "time": 6.0,
      "lane": 2,
      "pitch": 62,
      "velocity": 110
    },
    {
      "time": 7.0,
      "lane": 2,
      "pitch": 62,
      "velocity": 110
    },
    {
      "time": 7.5,
      "lane": 2,
      "pitch": 62,
      "velocity": 110
    },
    {
      "time": 8.5,
      "lane": 2,
      "pitch": 62,
      "velocity": 110
    },
    {
      "time": 9.0,
      "lane": 2,
      "pitch": 62,
      "velocity": 110
    },
    {
      "time": 10.0,
      "lane": 2,
      "pitch": 62,
      "velocity": 110
    },
    {
      "time": 10.5,
      "lane": 2,
      "pitch": 62,
      "velocity": 110
    },
    {
      "time": 11.0,
      "lane": 2,
      "pitch": 62,
      "velocity": 110
    },
    {
      "time": 11.5,
      "lane": 2,
      "pitch": 62,
      "velocity": 110
    },
    {
      "time": 12.0,
      "lane": 2,
      "pitch": 62,
      "velocity": 110
    },
    {
      "time": 13.0,
      "lane": 2,
      "pitch": 62,
      "velocity": 110
    },
    {
      "time": 13.5,
      "lane": 2,
      "pitch": 62,
      "velocity": 110
    },
    {
      "time": 14.5,
      "lane": 2,
      "pitch": 62,
      "velocity": 110
    },
    {
      "time": 15.0,
      "lane": 2,
      "pitch": 62,
      "velocity": 110
    },
    {
      "time": 16.0,
      "lane": 2,
      "pitch": 62,
      "velocity": 110
    },
    {
      "time": 16.5,
      "lane": 2,
      "pitch": 62,
      "velocity": 110
    },
    {
      "time": 17.0,
      "lane": 0,
      "pitch": 57,
      "velocity": 110
    },
    {
      "time": 17.5,
      "lane": 0,
      "pitch": 60,
      "velocity": 110
    },
    {
      "time": 18.0,
      "lane": 2,
      "pitch": 53,
      "velocity": 110
    },
    {
      "time": 18.0,
      "lane": 0,
      "pitch": 57,
      "velocity": 110
    },
    {
      "time": 18.0,
      "lane": 2,
      "pitch": 62,
      "velocity": 110
    },
    {
      "time": 19.0,
      "lane": 2,
      "pitch": 53,
      "velocity": 110
    },
    {
      "time": 19.0,
      "lane": 0,
      "pitch": 57,
      "velocity": 110
    },
    {
      "time": 19.0,
      "lane": 2,
      "pitch": 62,
      "velocity": 110
    },
    {
      "time": 20.0,
      "lane": 2,
      "pitch": 53,
      "velocity": 110
    },
    {
      "time": 20.0,
      "lane": 0,
      "pitch": 57,
      "velocity": 110
    },
    {
      "time": 20.0,
      "lane": 2,
      "pitch": 62,
      "velocity": 110
    },
    {
      "time": 20.5,
      "lane": 0,
      "pitch": 57,
      "velocity": 110
    },
    {
      "time": 20.5,
      "lane": 0,
      "pitch": 60,
      "velocity": 110
    },
    {
      "time": 20.5,
      "lane": 1,
      "pitch": 64,
      "velocity": 110
    },
    {
      "time": 21.0,
      "lane": 1,
      "pitch": 58,
      "velocity": 110
    },
    {
      "time": 21.0,
      "lane": 2,
      "pitch": 62,
      "velocity": 110
    },
    {
      "time": 21.0,
      "lane": 2,
      "pitch": 65,
      "velocity": 110
    },
    {
      "time": 22.0,
      "lane": 1,
      "pitch": 58,
      "velocity": 110
    },
    {
      "time": 22.0,
      "lane": 2,
      "pitch": 62,
      "velocity": 110
    },
    {
      "time": 22.0,
      "lane": 2,
      "pitch": 65,
      "velocity": 110
    },
    {
      "time": 23.0,
      "lane": 1,
      "pitch": 58,
      "velocity": 110
    },
    {
      "time": 23.0,
      "lane": 2,
      "pitch": 62,
      "velocity": 110
    },
    {
      "time": 23.0,
      "lane": 2,
      "pitch": 65,
      "velocity": 110
    },
    {
      "time": 23.5,
      "lane": 2,
      "pitch": 62,
      "velocity": 110
    },
    {
      "time": 23.5,
      "lane": 1,
      "pitch": 67,
      "velocity": 110
    },
    {
      "time": 24.0,
      "lane": 0,
      "pitch": 57,
      "velocity": 110
    },
    {
      "time": 24.0,
      "lane": 0,
      "pitch": 60,
      "velocity": 110
    },
    {
      "time": 24.0,
      "lane": 1,
      "pitch": 64,
      "velocity": 110
    },
    {
      "time": 25.0,
      "lane": 0,
      "pitch": 57,
      "velocity": 110
    },
    {
      "time": 25.0,
      "lane": 0,
      "pitch": 60,
      "velocity": 110
    },
    {
      "time": 25.0,
      "lane": 1,
      "pitch": 64,
      "velocity": 110
    },
    {
      "time": 26.0,
      "lane": 0,
      "pitch": 57,
      "velocity": 110
    },
    {
      "time": 26.0,
      "lane": 2,
      "pitch": 62,
      "velocity": 110
    },
    {
      "time": 26.5,
      "lane": 1,
      "pitch": 55,
      "velocity": 110
    },
    {
      "time": 26.5,
      "lane": 0,
      "pitch": 60,
      "velocity": 110
    },
    {
      "time": 27.0,
      "lane": 0,
      "pitch": 57,
      "velocity": 110
    },
    {
      "time": 27.0,
      "lane": 0,
      "pitch": 60,
      "velocity": 110
    },
    {
      "time": 27.5,
      "lane": 0,
      "pitch": 57,
      "velocity": 110
    },
    {
      "time": 27.5,
      "lane": 2,
      "pitch": 62,
      "velocity": 110
    },
    {
      "time": 29.0,
      "lane": 0,
      "pitch": 57,
      "velocity": 110
    },
    {
      "time": 29.5,
      "lane": 0,
      "pitch": 60,
      "velocity": 110
    },
    {
      "time": 30.0,
      "lane": 2,
      "pitch": 53,
      "velocity": 110
    },
    {
      "time": 30.0,
      "lane": 1,
      "pitch": 58,
      "velocity": 110
    },
    {
      "time": 30.0,
      "lane": 2,
      "pitch": 62,
      "velocity": 110
    },
    {
      "time": 31.0,
      "lane": 2,
      "pitch": 53,
      "velocity": 110
    },
    {
      "time": 31.0,
      "lane": 1,
      "pitch": 58,
      "velocity": 110
    },
    {
      "time": 31.0,
      "lane": 2,
      "pitch": 62,
      "velocity": 110
    },
    {
      "time": 32.0,
      "lane": 1,
      "pitch": 58,
      "velocity": 110
    },
    {
      "time": 32.0,
      "lane": 2,
      "pitch": 62,
      "velocity": 110
    },
    {
      "time": 32.5,
      "lane": 1,
      "pitch": 58,
      "velocity": 110
    },
    {
      "time": 32.5,
      "lane": 1,
      "pitch": 64,
      "velocity": 110
    },
    {
      "time": 33.0,
      "lane": 0,
      "pitch": 57,
      "velocity": 110
    },
    {
      "time": 33.0,
      "lane": 0,
      "pitch": 60,
      "velocity": 110
    },
    {
      "time": 33.0,
      "lane": 2,
      "pitch": 65,
      "velocity": 110
    },
    {
      "time": 34.0,
      "lane": 0,
      "pitch": 57,
      "velocity": 110
    },
    {
      "time": 34.0,
      "lane": 0,
      "pitch": 60,
      "velocity": 110
    },
    {
      "time": 34.0,
      "lane": 2,
      "pitch": 65,
      "velocity": 110
    },
    {
      "time": 35.0,
      "lane": 0,
      "pitch": 60,
      "velocity": 110
    },
    {
      "time": 35.0,
      "lane": 2,
      "pitch": 65,
      "velocity": 110
    },
    {
      "time": 35.5,
      "lane": 0,
      "pitch": 60,
      "velocity": 110
    },
    {
      "time": 35.5,
      "lane": 1,
      "pitch": 67,
      "velocity": 110
    },
    {
      "time": 36.0,
      "lane": 0,
      "pitch": 60,
      "velocity": 110
    },
    {
      "time": 36.0,
      "lane": 1,
      "pitch": 64,
      "velocity": 110
    },
    {
      "time": 37.0,
      "lane": 0,
      "pitch": 60,
      "velocity": 110
    },
    {
      "time": 37.0,
      "lane": 1,
      "pitch": 64,
      "velocity": 110
    },
    {
      "time": 38.0,
      "lane": 0,
      "pitch": 57,
      "velocity": 110
    },
    {
      "time": 38.0,
      "lane": 2,
      "pitch": 62,
      "velocity": 110
    },
    {
      "time": 38.5,
      "lane": 0,
      "pitch": 60,
      "velocity": 110
    },
    {
      "time": 39.0,
      "lane": 2,
      "pitch": 53,
      "velocity": 110
    },
    {
      "time": 39.0,
      "lane": 0,
      "pitch": 57,
      "velocity": 110
    },
    {
      "time": 39.0,
      "lane": 2,
      "pitch": 62,
      "velocity": 110
    },
    {
      "time": 41.0,
      "lane": 0,
      "pitch": 57,
      "velocity": 110
    },
    {
      "time": 41.5,
      "lane": 0,
      "pitch": 60,
      "velocity": 110
    },
    {
      "time": 42.0,
      "lane": 2,
      "pitch": 53,
      "velocity": 110
    },
    {
      "time": 42.0,
      "lane": 0,
      "pitch": 57,
      "velocity": 110
    },
    {
      "time": 42.0,
      "lane": 2,
      "pitch": 62,
      "velocity": 110
    },
    {
      "time": 43.0,
      "lane": 2,
      "pitch": 53,
      "velocity": 110
    },
    {
      "time": 43.0,
      "lane": 0,
      "pitch": 57,
      "velocity": 110
    },
    {
      "time": 43.0,
      "lane": 2,
      "pitch": 62,
      "velocity": 110
    },
    {
      "time": 44.0,
      "lane": 0,
      "pitch": 57,
      "velocity": 110
    },
    {
      "time": 44.0,
      "lane": 2,
      "pitch": 62,
      "velocity": 110
    },
    {
      "time": 44.5,
      "lane": 0,
      "pitch": 57,
      "velocity": 110
    },
    {
      "time": 44.5,
      "lane": 2,
      "pitch": 65,
      "velocity": 110
    },
    {
      "time": 45.0,
      "lane": 1,
      "pitch": 58,
      "velocity": 110
    },
    {
      "time": 45.0,
      "lane": 2,
      "pitch": 62,
      "velocity": 110
    },
    {
      "time": 45.0,
      "lane": 1,
      "pitch": 67,
      "velocity": 110
    },
    {
      "time": 46.0,
      "lane": 1,
      "pitch": 58,
      "velocity": 110
    },
    {
      "time": 46.0,
      "lane": 2,
      "pitch": 62,
      "velocity": 110
    },
    {
      "time": 46.0,
      "lane": 1,
      "pitch": 67,
      "velocity": 110
    },
    {
      "time": 47.0,
      "lane": 2,
      "pitch": 62,
      "velocity": 110
    },
    {
      "time": 47.0,
      "lane": 1,
      "pitch": 67,
      "velocity": 110
    },
    {
      "time": 47.5,
      "lane": 2,
      "pitch": 62,
      "velocity": 110
    },
    {
      "time": 47.5,
      "lane": 0,
      "pitch": 69,
      "velocity": 110
    },
    {
      "time": 48.0,
      "lane": 2,
      "pitch": 62,
      "velocity": 110
    },
    {
      "time": 48.0,
      "lane": 1,
      "pitch": 67,
      "velocity": 110
    },
    {
      "time": 48.0,
      "lane": 1,
      "pitch": 70,
      "velocity": 110
    },
    {
      "time": 49.0,
      "lane": 2,
      "pitch": 62,
      "velocity": 110
    },
    {
      "time": 49.0,
      "lane": 1,
      "pitch": 67,
      "velocity": 110
    },
    {
      "time": 49.0,
      "lane": 1,
      "pitch": 70,
      "velocity": 110
    },
    {
      "time": 50.0,
      "lane": 2,
      "pitch": 65,
      "velocity": 110
    },
    {
      "time": 50.0,
      "lane": 0,
      "pitch": 69,
      "velocity": 110
    },
    {
      "time": 50.5,
      "lane": 1,
      "pitch": 64,
      "velocity": 110
    },
    {
      "time": 50.5,
      "lane": 1,
      "pitch": 67,
      "velocity": 110
    },
    {
      "time": 51.0,
      "lane": 2,
      "pitch": 65,
      "velocity": 110
    },
    {
      "time": 51.0,
      "lane": 0,
      "pitch": 69,
      "velocity": 110
    },
    {
      "time": 51.5,
      "lane": 2,
      "pitch": 62,
      "velocity": 110
    },
    {
      "time": 53.0,
      "lane": 2,
      "pitch": 62,
      "velocity": 110
    },
    {
      "time": 53.5,
      "lane": 1,
      "pitch": 64,
      "velocity": 110
    },
    {
      "time": 54.0,
      "lane": 1,
      "pitch": 58,
      "velocity": 110
    },
    {
      "time": 54.0,
      "lane": 2,
      "pitch": 62,
      "velocity": 110
    },
    {
      "time": 54.0,
      "lane": 2,
      "pitch": 65,
      "velocity": 110
    },
    {
      "time": 55.0,
      "lane": 1,
      "pitch": 58,
      "velocity": 110
    },
    {
      "time": 55.0,
      "lane": 2,
      "pitch": 62,
      "velocity": 110
    },
    {
      "time": 55.0,
      "lane": 2,
      "pitch": 65,
      "velocity": 110
    },
    {
      "time": 56.0,
      "lane": 1,
      "pitch": 58,
      "velocity": 110
    },
    {
      "time": 56.0,
      "lane": 2,
      "pitch": 62,
      "velocity": 110
    },
    {
      "time": 56.0,
      "lane": 1,
      "pitch": 67,
      "velocity": 110
    },
    {
      "time": 57.0,
      "lane": 2,
      "pitch": 65,
      "velocity": 110
    },
    {
      "time": 57.0,
      "lane": 0,
      "pitch": 69,
      "velocity": 110
    },
    {
      "time": 57.5,
      "lane": 2,
      "pitch": 62,
      "velocity": 110
    },
    {
      "time": 59.0,
      "lane": 2,
      "pitch": 62,
      "velocity": 110
    },
    {
      "time": 59.5,
      "lane": 2,
      "pitch": 65,
      "velocity": 110
    },
    {
      "time": 60.0,
      "lane": 0,
      "pitch": 57,
      "velocity": 110
    },
    {
      "time": 60.0,
      "lane": 1,
      "pitch": 61,
      "velocity": 110
    },
    {
      "time": 60.0,
      "lane": 1,
      "pitch": 64,
      "velocity": 110
    },
    {
      "time": 61.0,
      "lane": 0,
      "pitch": 57,
      "velocity": 110
    },
    {
      "time": 61.0,
      "lane": 1,
      "pitch": 61,
      "velocity": 110
    },
    {
      "time": 61.0,
      "lane": 1,
      "pitch": 64,
      "velocity": 110
    },
    {
      "time": 62.0,
      "lane": 2,
      "pitch": 62,
      "velocity": 110
    },
    {
      "time": 62.0,
      "lane": 2,
      "pitch": 65,
      "velocity": 110
    },
    {
      "time": 62.5,
      "lane": 2,
      "pitch": 59,
      "velocity": 110
    },
    {
      "time": 62.5,
      "lane": 2,
      "pitch": 62,
      "velocity": 110
    },
    {
      "time": 63.0,
      "lane": 0,
      "pitch": 57,
      "velocity": 110
    },
    {
      "time": 63.0,
      "lane": 1,
      "pitch": 61,
      "velocity": 110
    },
    {
      "time": 63.0,
      "lane": 1,
      "pitch": 64,
      "velocity": 110
    },
    {
      "time": 65.0,
      "lane": 0,
      "pitch": 69,
      "velocity": 110
    },
    {
      "time": 65.5,
      "lane": 0,
      "pitch": 72,
      "velocity": 110
    },
    {
      "time": 66.0,
      "lane": 2,
      "pitch": 65,
      "velocity": 110
    },
    {
      "time": 66.0,
      "lane": 0,
      "pitch": 69,
      "velocity": 110
    },
    {
      "time": 66.0,
      "lane": 2,
      "pitch": 74,
      "velocity": 110
    },
    {
      "time": 67.0,
      "lane": 2,
      "pitch": 65,
      "velocity": 110
    },
    {
      "time": 67.0,
      "lane": 0,
      "pitch": 69,
      "velocity": 110
    },
    {
      "time": 67.0,
      "lane": 2,
      "pitch": 74,
      "velocity": 110
    },
    {
      "time": 68.0,
      "lane": 2,
      "pitch": 65,
      "velocity": 110
    },
    {
      "time": 68.0,
      "lane": 0,
      "pitch": 69,
      "velocity": 110
    },
    {
      "time": 68.0,
      "lane": 2,
      "pitch": 74,
      "velocity": 110
    },
    {
      "time": 68.5,
      "lane": 0,
      "pitch": 69,
      "velocity": 110
    },
    {
      "time": 68.5,
      "lane": 0,
      "pitch": 72,
      "velocity": 110
    },
    {
      "time": 68.5,
      "lane": 1,
      "pitch": 76,
      "velocity": 110
    },
    {
      "time": 69.0,
      "lane": 1,
      "pitch": 70,
      "velocity": 110
    },
    {
      "time": 69.0,
      "lane": 2,
      "pitch": 74,
      "velocity": 110
    },
    {
      "time": 69.0,
      "lane": 2,
      "pitch": 77,
      "velocity": 110
    },
    {
      "time": 70.0,
      "lane": 1,
      "pitch": 70,
      "velocity": 110
    },
    {
      "time": 70.0,
      "lane": 2,
      "pitch": 74,
      "velocity": 110
    },
    {
      "time": 70.0,
      "lane": 2,
      "pitch": 77,
      "velocity": 110
    },
    {
      "time": 71.0,
      "lane": 1,
      "pitch": 70,
      "velocity": 110
    },
    {
      "time": 71.0,
      "lane": 2,
      "pitch": 74,
      "velocity": 110
    },
    {
      "time": 71.0,
      "lane": 2,
      "pitch": 77,
      "velocity": 110
    },
    {
      "time": 71.5,
      "lane": 2,
      "pitch": 74,
      "velocity": 110
    },
    {
      "time": 71.5,
      "lane": 1,
      "pitch": 79,
      "velocity": 110
    },
    {
      "time": 72.0,
      "lane": 0,
      "pitch": 69,
      "velocity": 110
    },
    {
      "time": 72.0,
      "lane": 0,
      "pitch": 72,
      "velocity": 110
    },
    {
      "time": 72.0,
      "lane": 1,
      "pitch": 76,
      "velocity": 110
    },
    {
      "time": 73.0,
      "lane": 0,
      "pitch": 69,
      "velocity": 110
    },
    {
      "time": 73.0,
      "lane": 0,
      "pitch": 72,
      "velocity": 110
    },
    {
      "time": 73.0,
      "lane": 1,
      "pitch": 76,
      "velocity": 110
    },
    {
      "time": 74.0,
      "lane": 0,
      "pitch": 69,
      "velocity": 110
    },
    {
      "time": 74.0,
      "lane": 2,
      "pitch": 74,
      "velocity": 110
    },
    {
      "time": 74.5,
      "lane": 1,
      "pitch": 67,
      "velocity": 110
    },
    {
      "time": 74.5,
      "lane": 0,
      "pitch": 72,
      "velocity": 110
    },
    {
      "time": 75.0,
      "lane": 0,
      "pitch": 69,
      "velocity": 110
    },
    {
      "time": 75.0,
      "lane": 0,
      "pitch": 72,
      "velocity": 110
    },
    {
      "time": 75.5,
      "lane": 0,
      "pitch": 69,
      "velocity": 110
    },
    {
      "time": 75.5,
      "lane": 2,
      "pitch": 74,
      "velocity": 110
    },
    {
      "time": 77.0,
      "lane": 0,
      "pitch": 69,
      "velocity": 110
    },
    {
      "time": 77.5,
      "lane": 0,
      "pitch": 72,
      "velocity": 110
    },
    {
      "time": 78.0,
      "lane": 2,
      "pitch": 65,
      "velocity": 110
    },
    {
      "time": 78.0,
      "lane": 1,
      "pitch": 70,
      "velocity": 110
    },
    {
      "time": 78.0,
      "lane": 2,
      "pitch": 74,
      "velocity": 110
    },
    {
      "time": 79.0,
      "lane": 2,
      "pitch": 65,
      "velocity": 110
    },
    {
      "time": 79.0,
      "lane": 1,
      "pitch": 70,
      "velocity": 110
    },
    {
      "time": 79.0,
      "lane": 2,
      "pitch": 74,
      "velocity": 110
    },
    {
      "time": 80.0,
      "lane": 1,
      "pitch": 70,
      "velocity": 110
    },
    {
      "time": 80.0,
      "lane": 2,
      "pitch": 74,
      "velocity": 110
    },
    {
      "time": 80.5,
      "lane": 1,
      "pitch": 70,
      "velocity": 110
    },
    {
      "time": 80.5,
      "lane": 1,
      "pitch": 76,
      "velocity": 110
    },
    {
      "time": 81.0,
      "lane": 0,
      "pitch": 69,
      "velocity": 110
    },
    {
      "time": 81.0,
      "lane": 0,
      "pitch": 72,
      "velocity": 110
    },
    {
      "time": 81.0,
      "lane": 2,
      "pitch": 77,
      "velocity": 110
    },
    {
      "time": 82.0,
      "lane": 0,
      "pitch": 69,
      "velocity": 110
    },
    {
      "time": 82.0,
      "lane": 0,
      "pitch": 72,
      "velocity": 110
    },
    {
      "time": 82.0,
      "lane": 2,
      "pitch": 77,
      "velocity": 110
    },
    {
      "time": 83.0,
      "lane": 0,
      "pitch": 72,
      "velocity": 110
    },
    {
      "time": 83.0,
      "lane": 2,
      "pitch": 77,
      "velocity": 110
    },
    {
      "time": 83.5,
      "lane": 0,
      "pitch": 72,
      "velocity": 110
    },
    {
      "time": 83.5,
      "lane": 1,
      "pitch": 79,
      "velocity": 110
    },
    {
      "time": 84.0,
      "lane": 0,
      "pitch": 72,
      "velocity": 110
    },
    {
      "time": 84.0,
      "lane": 1,
      "pitch": 76,
      "velocity": 110
    },
    {
      "time": 85.0,
      "lane": 0,
      "pitch": 72,
      "velocity": 110
    },
    {
      "time": 85.0,
      "lane": 1,
      "pitch": 76,
      "velocity": 110
    },
    {
      "time": 86.0,
      "lane": 0,
      "pitch": 69,
      "velocity": 110
    },
    {
      "time": 86.0,
      "lane": 2,
      "pitch": 74,
      "velocity": 110
    },
    {
      "time": 86.5,
      "lane": 0,
      "pitch": 72,
      "velocity": 110
    },
    {
      "time": 87.0,
      "lane": 2,
      "pitch": 65,
      "velocity": 110
    },
    {
      "time": 87.0,
      "lane": 0,
      "pitch": 69,
      "velocity": 110
    },
    {
      "time": 87.0,
      "lane": 2,
      "pitch": 74,
      "velocity": 110
    },
    {
      "time": 89.0,
      "lane": 0,
      "pitch": 69,
      "velocity": 110
    },
    {
      "time": 89.5,
      "lane": 0,
      "pitch": 72,
      "velocity": 110
    },
    {
      "time": 90.0,
      "lane": 2,
      "pitch": 65,
      "velocity": 110
    },
    {
      "time": 90.0,
      "lane": 0,
      "pitch": 69,
      "velocity": 110
    },
    {
      "time": 90.0,
      "lane": 2,
      "pitch": 74,
      "velocity": 110
    },
    {
      "time": 91.0,
      "lane": 2,
      "pitch": 65,
      "velocity": 110
    },
    {
      "time": 91.0,
      "lane": 0,
      "pitch": 69,
      "velocity": 110
    },
    {
      "time": 91.0,
      "lane": 2,
      "pitch": 74,
      "velocity": 110
    },
    {
      "time": 92.0,
      "lane": 0,
      "pitch": 69,
      "velocity": 110
    },
    {
      "time": 92.0,
      "lane": 2,
      "pitch": 74,
      "velocity": 110
    },
    {
      "time": 92.5,
      "lane": 0,
      "pitch": 69,
      "velocity": 110
    },
    {
      "time": 92.5,
      "lane": 2,
      "pitch": 77,
      "velocity": 110
    },
    {
      "time": 93.0,
      "lane": 1,
      "pitch": 70,
      "velocity": 110
    },
    {
      "time": 93.0,
      "lane": 2,
      "pitch": 74,
      "velocity": 110
    },
    {
      "time": 93.0,
      "lane": 1,
      "pitch": 79,
      "velocity": 110
    },
    {
      "time": 94.0,
      "lane": 1,
      "pitch": 70,
      "velocity": 110
    },
    {
      "time": 94.0,
      "lane": 2,
      "pitch": 74,
      "velocity": 110
    },
    {
      "time": 94.0,
      "lane": 1,
      "pitch": 79,
      "velocity": 110
    },
    {
      "time": 95.0,
      "lane": 2,
      "pitch": 74,
      "velocity": 110
    },
    {
      "time": 95.0,
      "lane": 1,
      "pitch": 79,
      "velocity": 110
    },
    {
      "time": 95.5,
      "lane": 2,
      "pitch": 74,
      "velocity": 110
    },
    {
      "time": 95.5,
      "lane": 0,
      "pitch": 81,
      "velocity": 110
    },
    {
      "time": 96.0,
      "lane": 2,
      "pitch": 74,
      "velocity": 110
    },
    {
      "time": 96.0,
      "lane": 1,
      "pitch": 79,
      "velocity": 110
    },
    {
      "time": 96.0,
      "lane": 1,
      "pitch": 82,
      "velocity": 110
    },
    {
      "time": 97.0,
      "lane": 2,
      "pitch": 74,
      "velocity": 110
    },
    {
      "time": 97.0,
      "lane": 1,
      "pitch": 79,
      "velocity": 110
    },
    {
      "time": 97.0,
      "lane": 1,
      "pitch": 82,
      "velocity": 110
    },
    {
      "time": 98.0,
      "lane": 2,
      "pitch": 77,
      "velocity": 110
    },
    {
      "time": 98.0,
      "lane": 0,
      "pitch": 81,
      "velocity": 110
    },
    {
      "time": 98.5,
      "lane": 1,
      "pitch": 76,
      "velocity": 110
    },
    {
      "time": 98.5,
      "lane": 1,
      "pitch": 79,
      "velocity": 110
    },
    {
      "time": 99.0,
      "lane": 2,
      "pitch": 77,
      "velocity": 110
    },
    {
      "time": 99.0,
      "lane": 0,
      "pitch": 81,
      "velocity": 110
    },
    {
      "time": 99.5,
      "lane": 2,
      "pitch": 74,
      "velocity": 110
    },
    {
      "time": 101.0,
      "lane": 2,
      "pitch": 74,
      "velocity": 110
    },
    {
      "time": 101.5,
      "lane": 1,
      "pitch": 76,
      "velocity": 110
    },
    {
      "time": 102.0,
      "lane": 1,
      "pitch": 70,
      "velocity": 110
    },
    {
      "time": 102.0,
      "lane": 2,
      "pitch": 74,
      "velocity": 110
    },
    {
      "time": 102.0,
      "lane": 2,
      "pitch": 77,
      "velocity": 110
    },
    {
      "time": 103.0,
      "lane": 1,
      "pitch": 70,
      "velocity": 110
    },
    {
      "time": 103.0,
      "lane": 2,
      "pitch": 74,
      "velocity": 110
    },
    {
      "time": 103.0,
      "lane": 2,
      "pitch": 77,
      "velocity": 110
    },
    {
      "time": 104.0,
      "lane": 1,
      "pitch": 70,
      "velocity": 110
    },
    {
      "time": 104.0,
      "lane": 2,
      "pitch": 74,
      "velocity": 110
    },
    {
      "time": 104.0,
      "lane": 1,
      "pitch": 79,
      "velocity": 110
    },
    {
      "time": 105.0,
      "lane": 2,
      "pitch": 77,
      "velocity": 110
    },
    {
      "time": 105.0,
      "lane": 0,
      "pitch": 81,
      "velocity": 110
    },
    {
      "time": 105.5,
      "lane": 2,
      "pitch": 74,
      "velocity": 110
    },
    {
      "time": 107.0,
      "lane": 2,
      "pitch": 74,
      "velocity": 110
    },
    {
      "time": 107.5,
      "lane": 2,
      "pitch": 77,
      "velocity": 110
    },
    {
      "time": 108.0,
      "lane": 0,
      "pitch": 69,
      "velocity": 110
    },
    {
      "time": 108.0,
      "lane": 1,
      "pitch": 73,
      "velocity": 110
    },
    {
      "time": 108.0,
      "lane": 1,
      "pitch": 76,
      "velocity": 110
    },
    {
      "time": 109.0,
      "lane": 0,
      "pitch": 69,
      "velocity": 110
    },
    {
      "time": 109.0,
      "lane": 1,
      "pitch": 73,
      "velocity": 110
    },
    {
      "time": 109.0,
      "lane": 1,
      "pitch": 76,
      "velocity": 110
    },
    {
      "time": 110.0,
      "lane": 2,
      "pitch": 74,
      "velocity": 110
    },
    {
      "time": 110.5,
      "lane": 1,
      "pitch": 73,
      "velocity": 110
    },
    {
      "time": 111.0,
      "lane": 0,
      "pitch": 69,
      "velocity": 110
    },
    {
      "time": 111.0,
      "lane": 2,
      "pitch": 74,
      "velocity": 110
    },
    {
      "time": 112.0,
      "lane": 0,
      "pitch": 69,
      "velocity": 110
    },
    {
      "time": 112.0,
      "lane": 2,
      "pitch": 74,
      "velocity": 110
    },
    {
      "time": 113.0,
      "lane": 0,
      "pitch": 69,
      "velocity": 110
    },
    {
      "time": 113.0,
      "lane": 0,
      "pitch": 72,
      "velocity": 110
    },
    {
      "time": 113.0,
      "lane": 1,
      "pitch": 76,
      "velocity": 110
    },
    {
      "time": 114.0,
      "lane": 0,
      "pitch": 72,
      "velocity": 110
    },
    {
      "time": 114.0,
      "lane": 2,
      "pitch": 74,
      "velocity": 110
    },
    {
      "time": 114.0,
      "lane": 2,
      "pitch": 77,
      "velocity": 110
    },
    {
      "time": 115.0,
      "lane": 2,
      "pitch": 77,
      "velocity": 110
    },
    {
      "time": 115.5,
      "lane": 2,
      "pitch": 77,
      "velocity": 110
    },
    {
      "time": 116.0,
      "lane": 1,
      "pitch": 70,
      "velocity": 110
    },
    {
      "time": 116.0,
      "lane": 2,
      "pitch": 74,
      "velocity": 110
    },
    {
      "time": 116.0,
      "lane": 1,
      "pitch": 79,
      "velocity": 110
    },
    {
      "time": 117.0,
      "lane": 2,
      "pitch": 74,
      "velocity": 110
    },
    {
      "time": 117.0,
      "lane": 0,
      "pitch": 81,
      "velocity": 110
    },
    {
      "time": 117.5,
      "lane": 2,
      "pitch": 77,
      "velocity": 110
    },
    {
      "time": 119.0,
      "lane": 0,
      "pitch": 69,
      "velocity": 110
    },
    {
      "time": 119.0,
      "lane": 2,
      "pitch": 77,
      "velocity": 110
    },
    {
      "time": 119.5,
      "lane": 0,
      "pitch": 69,
      "velocity": 110
    },
    {
      "time": 119.5,
      "lane": 2,
      "pitch": 74,
      "velocity": 110
    },
    {
      "time": 120.0,
      "lane": 0,
      "pitch": 69,
      "velocity": 110
    },
    {
      "time": 123.0,
      "lane": 2,
      "pitch": 74,
      "velocity": 110
    },
    {
      "time": 123.0,
      "lane": 1,
      "pitch": 79,
      "velocity": 110
    },
    {
      "time": 123.0,
      "lane": 1,
      "pitch": 82,
      "velocity": 110
    },
    {
      "time": 125.0,
      "lane": 1,
      "pitch": 70,
      "velocity": 110
    },
    {
      "time": 125.0,
      "lane": 1,
      "pitch": 79,
      "velocity": 110
    },
    {
      "time": 125.5,
      "lane": 1,
      "pitch": 70,
      "velocity": 110
    },
    {
      "time": 125.5,
      "lane": 2,
      "pitch": 74,
      "velocity": 110
    },
    {
      "time": 126.0,
      "lane": 1,
      "pitch": 70,
      "velocity": 110
    },
    {
      "time": 129.0,
      "lane": 1,
      "pitch": 61,
      "velocity": 110
    },
    {
      "time": 129.0,
      "lane": 1,
      "pitch": 64,
      "velocity": 110
    },
    {
      "time": 129.5,
      "lane": 1,
      "pitch": 61,
      "velocity": 110
    },
    {
      "time": 129.5,
      "lane": 1,
      "pitch": 64,
      "velocity": 110
    },
    {
      "time": 130.5,
      "lane": 1,
      "pitch": 55,
      "velocity": 110
    },
    {
      "time": 130.5,
      "lane": 2,
      "pitch": 62,
      "velocity": 110
    },
    {
      "time": 132.0,
      "lane": 0,
      "pitch": 57,
      "velocity": 110
    },
    {
      "time": 132.0,
      "lane": 1,
      "pitch": 61,
      "velocity": 110
    },
    {
      "time": 132.0,
      "lane": 2,
      "pitch": 65,
      "velocity": 110
    },
    {
      "time": 134.0,
      "lane": 2,
      "pitch": 65,
      "velocity": 110
    },
    {
      "time": 134.5,
      "lane": 1,
      "pitch": 67,
      "velocity": 110
    },
    {
      "time": 135.0,
      "lane": 2,
      "pitch": 62,
      "velocity": 110
    },
    {
      "time": 135.0,
      "lane": 2,
      "pitch": 65,
      "velocity": 110
    },
    {
      "time": 135.0,
      "lane": 0,
      "pitch": 69,
      "velocity": 110
    },
    {
      "time": 136.0,
      "lane": 2,
      "pitch": 62,
      "velocity": 110
    },
    {
      "time": 136.0,
      "lane": 2,
      "pitch": 65,
      "velocity": 110
    },
    {
      "time": 136.0,
      "lane": 0,
      "pitch": 69,
      "velocity": 110
    },
    {
      "time": 137.0,
      "lane": 2,
      "pitch": 62,
      "velocity": 110
    },
    {
      "time": 137.0,
      "lane": 2,
      "pitch": 65,
      "velocity": 110
    },
    {
      "time": 137.0,
      "lane": 0,
      "pitch": 69,
      "velocity": 110
    },
    {
      "time": 138.0,
      "lane": 2,
      "pitch": 62,
      "velocity": 110
    },
    {
      "time": 138.0,
      "lane": 2,
      "pitch": 65,
      "velocity": 110
    },
    {
      "time": 138.0,
      "lane": 1,
      "pitch": 70,
      "velocity": 110
    },
    {
      "time": 138.5,
      "lane": 2,
      "pitch": 62,
      "velocity": 110
    },
    {
      "time": 138.5,
      "lane": 2,
      "pitch": 65,
      "velocity": 110
    },
    {
      "time": 138.5,
      "lane": 0,
      "pitch": 69,
      "velocity": 110
    },
    {
      "time": 141.0,
      "lane": 0,
      "pitch": 60,
      "velocity": 110
    },
    {
      "time": 141.0,
      "lane": 1,
      "pitch": 64,
      "velocity": 110
    },
    {
      "time": 141.0,
      "lane": 1,
      "pitch": 67,
      "velocity": 110
    },
    {
      "time": 142.0,
      "lane": 0,
      "pitch": 60,
      "velocity": 110
    },
    {
      "time": 142.0,
      "lane": 1,
      "pitch": 64,
      "velocity": 110
    },
    {
      "time": 142.0,
      "lane": 1,
      "pitch": 67,
      "velocity": 110
    },
    {
      "time": 143.0,
      "lane": 0,
      "pitch": 60,
      "velocity": 110
    },
    {
      "time": 143.0,
      "lane": 1,
      "pitch": 64,
      "velocity": 110
    },
    {
      "time": 143.0,
      "lane": 1,
      "pitch": 67,
      "velocity": 110
    },
    {
      "time": 144.0,
      "lane": 0,
      "pitch": 60,
      "velocity": 110
    },
    {
      "time": 144.0,
      "lane": 1,
      "pitch": 64,
      "velocity": 110
    },
    {
      "time": 144.0,
      "lane": 1,
      "pitch": 67,
      "velocity": 110
    },
    {
      "time": 144.5,
      "lane": 0,
      "pitch": 60,
      "velocity": 110
    },
    {
      "time": 144.5,
      "lane": 2,
      "pitch": 65,
      "velocity": 110
    },
    {
      "time": 144.5,
      "lane": 0,
      "pitch": 69,
      "velocity": 110
    },
    {
      "time": 147.0,
      "lane": 2,
      "pitch": 62,
      "velocity": 110
    },
    {
      "time": 147.0,
      "lane": 2,
      "pitch": 65,
      "velocity": 110
    },
    {
      "time": 147.0,
      "lane": 0,
      "pitch": 69,
      "velocity": 110
    },
    {
      "time": 148.0,
      "lane": 2,
      "pitch": 62,
      "velocity": 110
    },
    {
      "time": 148.0,
      "lane": 2,
      "pitch": 65,
      "velocity": 110
    },
    {
      "time": 148.0,
      "lane": 0,
      "pitch": 69,
      "velocity": 110
    },
    {
      "time": 149.0,
      "lane": 2,
      "pitch": 62,
      "velocity": 110
    },
    {
      "time": 149.0,
      "lane": 2,
      "pitch": 65,
      "velocity": 110
    },
    {
      "time": 149.0,
      "lane": 0,
      "pitch": 69,
      "velocity": 110
    },
    {
      "time": 150.0,
      "lane": 2,
      "pitch": 62,
      "velocity": 110
    },
    {
      "time": 150.0,
      "lane": 2,
      "pitch": 65,
      "velocity": 110
    },
    {
      "time": 150.0,
      "lane": 1,
      "pitch": 70,
      "velocity": 110
    },
    {
      "time": 150.5,
      "lane": 2,
      "pitch": 62,
      "velocity": 110
    },
    {
      "time": 150.5,
      "lane": 2,
      "pitch": 65,
      "velocity": 110
    },
    {
      "time": 150.5,
      "lane": 0,
      "pitch": 69,
      "velocity": 110
    },
    {
      "time": 153.0,
      "lane": 1,
      "pitch": 61,
      "velocity": 110
    },
    {
      "time": 153.0,
      "lane": 1,
      "pitch": 64,
      "velocity": 110
    },
    {
      "time": 153.0,
      "lane": 1,
      "pitch": 67,
      "velocity": 110
    },
    {
      "time": 154.0,
      "lane": 1,
      "pitch": 61,
      "velocity": 110
    },
    {
      "time": 154.0,
      "lane": 2,
      "pitch": 65,
      "velocity": 110
    },
    {
      "time": 155.0,
      "lane": 0,
      "pitch": 57,
      "velocity": 110
    },
    {
      "time": 155.0,
      "lane": 1,
      "pitch": 64,
      "velocity": 110
    },
    {
      "time": 156.0,
      "lane": 2,
      "pitch": 53,
      "velocity": 110
    },
    {
      "time": 156.0,
      "lane": 0,
      "pitch": 57,
      "velocity": 110
    },
    {
      "time": 156.0,
      "lane": 2,
      "pitch": 62,
      "velocity": 110
    },
    {
      "time": 158.0,
      "lane": 2,
      "pitch": 62,
      "velocity": 110
    },
    {
      "time": 158.5,
      "lane": 1,
      "pitch": 64,
      "velocity": 110
    },
    {
      "time": 159.0,
      "lane": 0,
      "pitch": 57,
      "velocity": 110
    },
    {
      "time": 159.0,
      "lane": 2,
      "pitch": 62,
      "velocity": 110
    },
    {
      "time": 159.0,
      "lane": 2,
      "pitch": 65,
      "velocity": 110
    },
    {
      "time": 161.0,
      "lane": 1,
      "pitch": 67,
      "velocity": 110
    },
    {
      "time": 161.5,
      "lane": 0,
      "pitch": 69,
      "velocity": 110
    },
    {
      "time": 162.0,
      "lane": 0,
      "pitch": 60,
      "velocity": 110
    },
    {
      "time": 162.0,
      "lane": 1,
      "pitch": 67,
      "velocity": 110
    },
    {
      "time": 163.0,
      "lane": 0,
      "pitch": 60,
      "velocity": 110
    },
    {
      "time": 163.0,
      "lane": 2,
      "pitch": 65,
      "velocity": 110
    },
    {
      "time": 164.0,
      "lane": 0,
      "pitch": 60,
      "velocity": 110
    },
    {
      "time": 164.0,
      "lane": 1,
      "pitch": 64,
      "velocity": 110
    },
    {
      "time": 165.0,
      "lane": 0,
      "pitch": 57,
      "velocity": 110
    },
    {
      "time": 165.0,
      "lane": 0,
      "pitch": 60,
      "velocity": 110
    },
    {
      "time": 165.0,
      "lane": 2,
      "pitch": 65,
      "velocity": 110
    },
    {
      "time": 166.0,
      "lane": 0,
      "pitch": 57,
      "velocity": 110
    },
    {
      "time": 166.0,
      "lane": 0,
      "pitch": 60,
      "velocity": 110
    },
    {
      "time": 166.0,
      "lane": 1,
      "pitch": 67,
      "velocity": 110
    },
    {
      "time": 167.0,
      "lane": 0,
      "pitch": 57,
      "velocity": 110
    },
    {
      "time": 167.0,
      "lane": 0,
      "pitch": 60,
      "velocity": 110
    },
    {
      "time": 167.0,
      "lane": 0,
      "pitch": 69,
      "velocity": 110
    },
    {
      "time": 168.0,
      "lane": 0,
      "pitch": 60,
      "velocity": 110
    },
    {
      "time": 168.0,
      "lane": 1,
      "pitch": 64,
      "velocity": 110
    },
    {
      "time": 168.0,
      "lane": 1,
      "pitch": 67,
      "velocity": 110
    },
    {
      "time": 170.0,
      "lane": 2,
      "pitch": 65,
      "velocity": 110
    },
    {
      "time": 170.5,
      "lane": 1,
      "pitch": 67,
      "velocity": 110
    },
    {
      "time": 171.0,
      "lane": 0,
      "pitch": 60,
      "velocity": 110
    },
    {
      "time": 171.0,
      "lane": 2,
      "pitch": 65,
      "velocity": 110
    },
    {
      "time": 171.0,
      "lane": 0,
      "pitch": 69,
      "velocity": 110
    },
    {
      "time": 173.0,
      "lane": 1,
      "pitch": 67,
      "velocity": 110
    },
    {
      "time": 173.5,
      "lane": 2,
      "pitch": 65,
      "velocity": 110
    },
    {
      "time": 174.0,
      "lane": 1,
      "pitch": 61,
      "velocity": 110
    },
    {
      "time": 174.0,
      "lane": 1,
      "pitch": 64,
      "velocity": 110
    },
    {
      "time": 175.0,
      "lane": 1,
      "pitch": 61,
      "velocity": 110
    },
    {
      "time": 175.0,
      "lane": 2,
      "pitch": 65,
      "velocity": 110
    },
    {
      "time": 176.0,
      "lane": 1,
      "pitch": 61,
      "velocity": 110
    },
    {
      "time": 176.0,
      "lane": 1,
      "pitch": 64,
      "velocity": 110
    },
    {
      "time": 177.0,
      "lane": 2,
      "pitch": 53,
      "velocity": 110
    },
    {
      "time": 177.0,
      "lane": 0,
      "pitch": 57,
      "velocity": 110
    },
    {
      "time": 177.0,
      "lane": 2,
      "pitch": 62,
      "velocity": 110
    },
    {
      "time": 179.0,
      "lane": 1,
      "pitch": 64,
      "velocity": 110
    },
    {
      "time": 179.5,
      "lane": 0,
      "pitch": 60,
      "velocity": 110
    },
    {
      "time": 180.0,
      "lane": 2,
      "pitch": 53,
      "velocity": 110
    },
    {
      "time": 180.0,
      "lane": 0,
      "pitch": 57,
      "velocity": 110
    },
    {
      "time": 180.0,
      "lane": 2,
      "pitch": 62,
      "velocity": 110
    },
    {
      "time": 182.0,
      "lane": 2,
      "pitch": 74,
      "velocity": 110
    },
    {
      "time": 182.5,
      "lane": 1,
      "pitch": 76,
      "velocity": 110
    },
    {
      "time": 183.0,
      "lane": 0,
      "pitch": 69,
      "velocity": 110
    },
    {
      "time": 183.0,
      "lane": 2,
      "pitch": 74,
      "velocity": 110
    },
    {
      "time": 183.0,
      "lane": 2,
      "pitch": 77,
      "velocity": 110
    },
    {
      "time": 185.0,
      "lane": 1,
      "pitch": 76,
      "velocity": 110
    },
    {
      "time": 185.5,
      "lane": 2,
      "pitch": 77,
      "velocity": 110
    },
    {
      "time": 186.0,
      "lane": 0,
      "pitch": 72,
      "velocity": 110
    },
    {
      "time": 186.0,
      "lane": 1,
      "pitch": 79,
      "velocity": 110
    },
    {
      "time": 187.0,
      "lane": 0,
      "pitch": 72,
      "velocity": 110
    },
    {
      "time": 187.0,
      "lane": 2,
      "pitch": 77,
      "velocity": 110
    },
    {
      "time": 188.0,
      "lane": 0,
      "pitch": 72,
      "velocity": 110
    },
    {
      "time": 188.0,
      "lane": 1,
      "pitch": 79,
      "velocity": 110
    },
    {
      "time": 189.0,
      "lane": 2,
      "pitch": 77,
      "velocity": 110
    },
    {
      "time": 189.0,
      "lane": 0,
      "pitch": 81,
      "velocity": 110
    },
    {
      "time": 190.0,
      "lane": 0,
      "pitch": 72,
      "velocity": 110
    },
    {
      "time": 190.0,
      "lane": 1,
      "pitch": 79,
      "velocity": 110
    },
    {
      "time": 191.0,
      "lane": 0,
      "pitch": 72,
      "velocity": 110
    },
    {
      "time": 191.0,
      "lane": 2,
      "pitch": 77,
      "velocity": 110
    },
    {
      "time": 192.0,
      "lane": 2,
      "pitch": 65,
      "velocity": 110
    },
    {
      "time": 192.0,
      "lane": 1,
      "pitch": 70,
      "velocity": 110
    },
    {
      "time": 192.0,
      "lane": 2,
      "pitch": 74,
      "velocity": 110
    },
    {
      "time": 194.0,
      "lane": 2,
      "pitch": 74,
      "velocity": 110
    },
    {
      "time": 194.5,
      "lane": 1,
      "pitch": 76,
      "velocity": 110
    },
    {
      "time": 195.0,
      "lane": 0,
      "pitch": 69,
      "velocity": 110
    },
    {
      "time": 195.0,
      "lane": 2,
      "pitch": 74,
      "velocity": 110
    },
    {
      "time": 195.0,
      "lane": 2,
      "pitch": 77,
      "velocity": 110
    },
    {
      "time": 196.0,
      "lane": 0,
      "pitch": 69,
      "velocity": 110
    },
    {
      "time": 196.0,
      "lane": 2,
      "pitch": 74,
      "velocity": 110
    },
    {
      "time": 196.0,
      "lane": 1,
      "pitch": 79,
      "velocity": 110
    },
    {
      "time": 197.0,
      "lane": 2,
      "pitch": 74,
      "velocity": 110
    },
    {
      "time": 197.0,
      "lane": 0,
      "pitch": 81,
      "velocity": 110
    },
    {
      "time": 198.0,
      "lane": 1,
      "pitch": 70,
      "velocity": 110
    },
    {
      "time": 198.0,
      "lane": 2,
      "pitch": 74,
      "velocity": 110
    },
    {
      "time": 198.0,
      "lane": 1,
      "pitch": 82,
      "velocity": 110
    },
    {
      "time": 199.0,
      "lane": 1,
      "pitch": 70,
      "velocity": 110
    },
    {
      "time": 199.0,
      "lane": 2,
      "pitch": 74,
      "velocity": 110
    },
    {
      "time": 200.0,
      "lane": 1,
      "pitch": 70,
      "velocity": 110
    },
    {
      "time": 200.0,
      "lane": 1,
      "pitch": 79,
      "velocity": 110
    },
    {
      "time": 201.0,
      "lane": 0,
      "pitch": 69,
      "velocity": 110
    },
    {
      "time": 201.0,
      "lane": 2,
      "pitch": 77,
      "velocity": 110
    },
    {
      "time": 203.0,
      "lane": 1,
      "pitch": 79,
      "velocity": 110
    },
    {
      "time": 203.5,
      "lane": 1,
      "pitch": 76,
      "velocity": 110
    },
    {
      "time": 204.0,
      "lane": 0,
      "pitch": 69,
      "velocity": 110
    },
    {
      "time": 204.0,
      "lane": 2,
      "pitch": 74,
      "velocity": 110
    },
    {
      "time": 206.0,
      "lane": 1,
      "pitch": 76,
      "velocity": 110
    },
    {
      "time": 206.5,
      "lane": 1,
      "pitch": 73,
      "velocity": 110
    },
    {
      "time": 207.0,
      "lane": 2,
      "pitch": 74,
      "velocity": 110
    },
    {
      "time": 207.0,
      "lane": 2,
      "pitch": 77,
      "velocity": 110
    },
    {
      "time": 207.0,
      "lane": 0,
      "pitch": 81,
      "velocity": 110
    },
    {
      "time": 210.0,
      "lane": 2,
      "pitch": 74,
      "velocity": 110
    },
    {
      "time": 210.0,
      "lane": 1,
      "pitch": 79,
      "velocity": 110
    },
    {
      "time": 210.0,
      "lane": 1,
      "pitch": 82,
      "velocity": 110
    },
    {
      "time": 213.0,
      "lane": 0,
      "pitch": 72,
      "velocity": 110
    },
    {
      "time": 213.0,
      "lane": 2,
      "pitch": 77,
      "velocity": 110
    },
    {
      "time": 213.0,
      "lane": 0,
      "pitch": 81,
      "velocity": 110
    },
    {
      "time": 214.0,
      "lane": 0,
      "pitch": 72,
      "velocity": 110
    },
    {
      "time": 214.0,
      "lane": 2,
      "pitch": 77,
      "velocity": 110
    },
    {
      "time": 214.0,
      "lane": 0,
      "pitch": 81,
      "velocity": 110
    },
    {
      "time": 215.0,
      "lane": 0,
      "pitch": 72,
      "velocity": 110
    },
    {
      "time": 215.0,
      "lane": 2,
      "pitch": 77,
      "velocity": 110
    },
    {
      "time": 215.0,
      "lane": 0,
      "pitch": 81,
      "velocity": 110
    },
    {
      "time": 216.0,
      "lane": 0,
      "pitch": 72,
      "velocity": 110
    },
    {
      "time": 216.0,
      "lane": 1,
      "pitch": 76,
      "velocity": 110
    },
    {
      "time": 216.0,
      "lane": 0,
      "pitch": 81,
      "velocity": 110
    },
    {
      "time": 216.5,
      "lane": 1,
      "pitch": 79,
      "velocity": 110
    },
    {
      "time": 219.0,
      "lane": 1,
      "pitch": 70,
      "velocity": 110
    },
    {
      "time": 219.0,
      "lane": 2,
      "pitch": 74,
      "velocity": 110
    },
    {
      "time": 219.0,
      "lane": 1,
      "pitch": 79,
      "velocity": 110
    },
    {
      "time": 222.0,
      "lane": 0,
      "pitch": 69,
      "velocity": 110
    },
    {
      "time": 222.0,
      "lane": 2,
      "pitch": 74,
      "velocity": 110
    },
    {
      "time": 222.0,
      "lane": 2,
      "pitch": 77,
      "velocity": 110
    },
    {
      "time": 225.0,
      "lane": 0,
      "pitch": 69,
      "velocity": 110
    },
    {
      "time": 225.0,
      "lane": 2,
      "pitch": 77,
      "velocity": 110
    },
    {
      "time": 226.0,
      "lane": 0,
      "pitch": 69,
      "velocity": 110
    },
    {
      "time": 226.0,
      "lane": 1,
      "pitch": 79,
      "velocity": 110
    },
    {
      "time": 227.0,
      "lane": 0,
      "pitch": 69,
      "velocity": 110
    },
    {
      "time": 227.0,
      "lane": 1,
      "pitch": 76,
      "velocity": 110
    },
    {
      "time": 228.0,
      "lane": 2,
      "pitch": 65,
      "velocity": 110
    },
    {
      "time": 228.0,
      "lane": 0,
      "pitch": 69,
      "velocity": 110
    },
    {
      "time": 228.0,
      "lane": 2,
      "pitch": 74,
      "velocity": 110
    },
    {
      "time": 229.5,
      "lane": 2,
      "pitch": 74,
      "velocity": 110
    },
    {
      "time": 230.0,
      "lane": 1,
      "pitch": 76,
      "velocity": 110
    },
    {
      "time": 230.5,
      "lane": 2,
      "pitch": 77,
      "velocity": 110
    },
    {
      "time": 231.0,
      "lane": 2,
      "pitch": 74,
      "velocity": 110
    },
    {
      "time": 231.0,
      "lane": 2,
      "pitch": 77,
      "velocity": 110
    },
    {
      "time": 231.0,
      "lane": 0,
      "pitch": 81,
      "velocity": 110
    },
    {
      "time": 232.5,
      "lane": 2,
      "pitch": 74,
      "velocity": 110
    },
    {
      "time": 233.0,
      "lane": 1,
      "pitch": 76,
      "velocity": 110
    },
    {
      "time": 233.5,
      "lane": 2,
      "pitch": 77,
      "velocity": 110
    },
    {
      "time": 234.0,
      "lane": 2,
      "pitch": 74,
      "velocity": 110
    },
    {
      "time": 234.0,
      "lane": 2,
      "pitch": 77,
      "velocity": 110
    },
    {
      "time": 234.0,
      "lane": 1,
      "pitch": 82,
      "velocity": 110
    },
    {
      "time": 235.5,
      "lane": 2,
      "pitch": 74,
      "velocity": 110
    },
    {
      "time": 236.0,
      "lane": 1,
      "pitch": 76,
      "velocity": 110
    },
    {
      "time": 236.5,
      "lane": 2,
      "pitch": 77,
      "velocity": 110
    },
    {
      "time": 237.0,
      "lane": 0,
      "pitch": 72,
      "velocity": 110
    },
    {
      "time": 237.0,
      "lane": 2,
      "pitch": 77,
      "velocity": 110
    },
    {
      "time": 237.0,
      "lane": 0,
      "pitch": 81,
      "velocity": 110
    },
    {
      "time": 238.0,
      "lane": 0,
      "pitch": 72,
      "velocity": 110
    },
    {
      "time": 238.0,
      "lane": 2,
      "pitch": 77,
      "velocity": 110
    },
    {
      "time": 238.0,
      "lane": 0,
      "pitch": 81,
      "velocity": 110
    },
    {
      "time": 239.0,
      "lane": 2,
      "pitch": 77,
      "velocity": 110
    },
    {
      "time": 239.0,
      "lane": 0,
      "pitch": 84,
      "velocity": 110
    },
    {
      "time": 240.0,
      "lane": 0,
      "pitch": 72,
      "velocity": 110
    },
    {
      "time": 240.0,
      "lane": 1,
      "pitch": 76,
      "velocity": 110
    },
    {
      "time": 240.0,
      "lane": 0,
      "pitch": 81,
      "velocity": 110
    },
    {
      "time": 240.5,
      "lane": 1,
      "pitch": 79,
      "velocity": 110
    },
    {
      "time": 243.0,
      "lane": 1,
      "pitch": 70,
      "velocity": 110
    },
    {
      "time": 243.0,
      "lane": 2,
      "pitch": 74,
      "velocity": 110
    },
    {
      "time": 243.0,
      "lane": 1,
      "pitch": 79,
      "velocity": 110
    },
    {
      "time": 246.0,
      "lane": 0,
      "pitch": 69,
      "velocity": 110
    },
    {
      "time": 246.0,
      "lane": 2,
      "pitch": 74,
      "velocity": 110
    },
    {
      "time": 246.0,
      "lane": 2,
      "pitch": 77,
      "velocity": 110
    },
    {
      "time": 249.0,
      "lane": 0,
      "pitch": 69,
      "velocity": 110
    },
    {
      "time": 249.0,
      "lane": 2,
      "pitch": 77,
      "velocity": 110
    },
    {
      "time": 250.0,
      "lane": 0,
      "pitch": 69,
      "velocity": 110
    },
    {
      "time": 250.0,
      "lane": 1,
      "pitch": 79,
      "velocity": 110
    },
    {
      "time": 251.0,
      "lane": 0,
      "pitch": 69,
      "velocity": 110
    },
    {
      "time": 251.0,
      "lane": 1,
      "pitch": 76,
      "velocity": 110
    },
    {
      "time": 252.0,
      "lane": 2,
      "pitch": 65,
      "velocity": 110
    },
    {
      "time": 252.0,
      "lane": 0,
      "pitch": 69,
      "velocity": 110
    },
    {
      "time": 252.0,
      "lane": 2,
      "pitch": 74,
      "velocity": 110
    },
    {
      "time": 255.0,
      "lane": 2,
      "pitch": 62,
      "velocity": 110
    },
    {
      "time": 12.0,
      "lane": 2,
      "pitch": 26,
      "velocity": 110
    },
    {
      "time": 12.0,
      "lane": 2,
      "pitch": 38,
      "velocity": 110
    },
    {
      "time": 15.0,
      "lane": 2,
      "pitch": 26,
      "velocity": 110
    },
    {
      "time": 15.0,
      "lane": 2,
      "pitch": 38,
      "velocity": 110
    },
    {
      "time": 16.5,
      "lane": 2,
      "pitch": 26,
      "velocity": 110
    },
    {
      "time": 16.5,
      "lane": 2,
      "pitch": 38,
      "velocity": 110
    },
    {
      "time": 18.0,
      "lane": 2,
      "pitch": 38,
      "velocity": 110
    },
    {
      "time": 18.0,
      "lane": 2,
      "pitch": 50,
      "velocity": 110
    },
    {
      "time": 19.0,
      "lane": 2,
      "pitch": 38,
      "velocity": 110
    },
    {
      "time": 19.0,
      "lane": 2,
      "pitch": 50,
      "velocity": 110
    },
    {
      "time": 19.5,
      "lane": 2,
      "pitch": 38,
      "velocity": 110
    },
    {
      "time": 19.5,
      "lane": 2,
      "pitch": 50,
      "velocity": 110
    },
    {
      "time": 20.5,
      "lane": 0,
      "pitch": 36,
      "velocity": 110
    },
    {
      "time": 20.5,
      "lane": 0,
      "pitch": 48,
      "velocity": 110
    },
    {
      "time": 21.0,
      "lane": 1,
      "pitch": 34,
      "velocity": 110
    },
    {
      "time": 21.0,
      "lane": 1,
      "pitch": 46,
      "velocity": 110
    },
    {
      "time": 22.0,
      "lane": 1,
      "pitch": 34,
      "velocity": 110
    },
    {
      "time": 22.0,
      "lane": 1,
      "pitch": 46,
      "velocity": 110
    },
    {
      "time": 22.5,
      "lane": 1,
      "pitch": 34,
      "velocity": 110
    },
    {
      "time": 22.5,
      "lane": 1,
      "pitch": 46,
      "velocity": 110
    },
    {
      "time": 23.5,
      "lane": 1,
      "pitch": 34,
      "velocity": 110
    },
    {
      "time": 23.5,
      "lane": 1,
      "pitch": 46,
      "velocity": 110
    },
    {
      "time": 24.0,
      "lane": 0,
      "pitch": 33,
      "velocity": 110
    },
    {
      "time": 24.0,
      "lane": 0,
      "pitch": 45,
      "velocity": 110
    },
    {
      "time": 25.0,
      "lane": 0,
      "pitch": 33,
      "velocity": 110
    },
    {
      "time": 25.0,
      "lane": 0,
      "pitch": 45,
      "velocity": 110
    },
    {
      "time": 25.5,
      "lane": 0,
      "pitch": 33,
      "velocity": 110
    },
    {
      "time": 25.5,
      "lane": 0,
      "pitch": 45,
      "velocity": 110
    },
    {
      "time": 26.5,
      "lane": 0,
      "pitch": 33,
      "velocity": 110
    },
    {
      "time": 26.5,
      "lane": 0,
      "pitch": 45,
      "velocity": 110
    },
    {
      "time": 27.0,
      "lane": 2,
      "pitch": 38,
      "velocity": 110
    },
    {
      "time": 27.0,
      "lane": 2,
      "pitch": 50,
      "velocity": 110
    },
    {
      "time": 28.0,
      "lane": 2,
      "pitch": 38,
      "velocity": 110
    },
    {
      "time": 28.0,
      "lane": 2,
      "pitch": 50,
      "velocity": 110
    },
    {
      "time": 28.5,
      "lane": 2,
      "pitch": 38,
      "velocity": 110
    },
    {
      "time": 28.5,
      "lane": 2,
      "pitch": 50,
      "velocity": 110
    },
    {
      "time": 29.5,
      "lane": 2,
      "pitch": 38,
      "velocity": 110
    },
    {
      "time": 29.5,
      "lane": 2,
      "pitch": 50,
      "velocity": 110
    },
    {
      "time": 30.0,
      "lane": 1,
      "pitch": 34,
      "velocity": 110
    },
    {
      "time": 30.0,
      "lane": 1,
      "pitch": 46,
      "velocity": 110
    },
    {
      "time": 31.0,
      "lane": 1,
      "pitch": 34,
      "velocity": 110
    },
    {
      "time": 31.0,
      "lane": 1,
      "pitch": 46,
      "velocity": 110
    },
    {
      "time": 31.5,
      "lane": 1,
      "pitch": 34,
      "velocity": 110
    },
    {
      "time": 31.5,
      "lane": 1,
      "pitch": 46,
      "velocity": 110
    },
    {
      "time": 32.5,
      "lane": 1,
      "pitch": 34,
      "velocity": 110
    },
    {
      "time": 32.5,
      "lane": 1,
      "pitch": 46,
      "velocity": 110
    },
    {
      "time": 33.0,
      "lane": 2,
      "pitch": 29,
      "velocity": 110
    },
    {
      "time": 33.0,
      "lane": 2,
      "pitch": 41,
      "velocity": 110
    },
    {
      "time": 34.0,
      "lane": 2,
      "pitch": 29,
      "velocity": 110
    },
    {
      "time": 34.0,
      "lane": 2,
      "pitch": 41,
      "velocity": 110
    },
    {
      "time": 34.5,
      "lane": 2,
      "pitch": 29,
      "velocity": 110
    },
    {
      "time": 34.5,
      "lane": 2,
      "pitch": 41,
      "velocity": 110
    },
    {
      "time": 35.5,
      "lane": 2,
      "pitch": 29,
      "velocity": 110
    },
    {
      "time": 35.5,
      "lane": 2,
      "pitch": 41,
      "velocity": 110
    },
    {
      "time": 36.0,
      "lane": 0,
      "pitch": 36,
      "velocity": 110
    },
    {
      "time": 36.0,
      "lane": 0,
      "pitch": 48,
      "velocity": 110
    },
    {
      "time": 37.0,
      "lane": 0,
      "pitch": 36,
      "velocity": 110
    },
    {
      "time": 37.0,
      "lane": 0,
      "pitch": 48,
      "velocity": 110
    },
    {
      "time": 37.5,
      "lane": 0,
      "pitch": 33,
      "velocity": 110
    },
    {
      "time": 37.5,
      "lane": 0,
      "pitch": 45,
      "velocity": 110
    },
    {
      "time": 38.5,
      "lane": 0,
      "pitch": 33,
      "velocity": 110
    },
    {
      "time": 38.5,
      "lane": 0,
      "pitch": 45,
      "velocity": 110
    },
    {
      "time": 39.0,
      "lane": 2,
      "pitch": 38,
      "velocity": 110
    },
    {
      "time": 39.0,
      "lane": 2,
      "pitch": 50,
      "velocity": 110
    },
    {
      "time": 40.0,
      "lane": 2,
      "pitch": 38,
      "velocity": 110
    },
    {
      "time": 40.0,
      "lane": 2,
      "pitch": 50,
      "velocity": 110
    },
    {
      "time": 40.5,
      "lane": 2,
      "pitch": 38,
      "velocity": 110
    },
    {
      "time": 40.5,
      "lane": 2,
      "pitch": 50,
      "velocity": 110
    },
    {
      "time": 41.5,
      "lane": 2,
      "pitch": 38,
      "velocity": 110
    },
    {
      "time": 41.5,
      "lane": 2,
      "pitch": 50,
      "velocity": 110
    },
    {
      "time": 42.0,
      "lane": 2,
      "pitch": 38,
      "velocity": 110
    },
    {
      "time": 42.0,
      "lane": 2,
      "pitch": 50,
      "velocity": 110
    },
    {
      "time": 43.0,
      "lane": 2,
      "pitch": 38,
      "velocity": 110
    },
    {
      "time": 43.0,
      "lane": 2,
      "pitch": 50,
      "velocity": 110
    },
    {
      "time": 43.5,
      "lane": 2,
      "pitch": 38,
      "velocity": 110
    },
    {
      "time": 43.5,
      "lane": 2,
      "pitch": 50,
      "velocity": 110
    },
    {
      "time": 44.5,
      "lane": 2,
      "pitch": 38,
      "velocity": 110
    },
    {
      "time": 44.5,
      "lane": 2,
      "pitch": 50,
      "velocity": 110
    },
    {
      "time": 45.0,
      "lane": 1,
      "pitch": 34,
      "velocity": 110
    },
    {
      "time": 45.0,
      "lane": 1,
      "pitch": 46,
      "velocity": 110
    },
    {
      "time": 46.0,
      "lane": 1,
      "pitch": 34,
      "velocity": 110
    },
    {
      "time": 46.0,
      "lane": 1,
      "pitch": 46,
      "velocity": 110
    },
    {
      "time": 46.5,
      "lane": 1,
      "pitch": 34,
      "velocity": 110
    },
    {
      "time": 46.5,
      "lane": 1,
      "pitch": 46,
      "velocity": 110
    },
    {
      "time": 47.5,
      "lane": 1,
      "pitch": 34,
      "velocity": 110
    },
    {
      "time": 47.5,
      "lane": 1,
      "pitch": 46,
      "velocity": 110
    },
    {
      "time": 48.0,
      "lane": 1,
      "pitch": 31,
      "velocity": 110
    },
    {
      "time": 48.0,
      "lane": 1,
      "pitch": 43,
      "velocity": 110
    },
    {
      "time": 49.0,
      "lane": 1,
      "pitch": 31,
      "velocity": 110
    },
    {
      "time": 49.0,
      "lane": 1,
      "pitch": 43,
      "velocity": 110
    },
    {
      "time": 49.5,
      "lane": 1,
      "pitch": 31,
      "velocity": 110
    },
    {
      "time": 49.5,
      "lane": 1,
      "pitch": 43,
      "velocity": 110
    },
    {
      "time": 50.5,
      "lane": 1,
      "pitch": 31,
      "velocity": 110
    },
    {
      "time": 50.5,
      "lane": 1,
      "pitch": 43,
      "velocity": 110
    },
    {
      "time": 51.0,
      "lane": 2,
      "pitch": 38,
      "velocity": 110
    },
    {
      "time": 51.0,
      "lane": 2,
      "pitch": 50,
      "velocity": 110
    },
    {
      "time": 52.0,
      "lane": 2,
      "pitch": 38,
      "velocity": 110
    },
    {
      "time": 52.0,
      "lane": 2,
      "pitch": 50,
      "velocity": 110
    },
    {
      "time": 52.5,
      "lane": 2,
      "pitch": 38,
      "velocity": 110
    },
    {
      "time": 52.5,
      "lane": 2,
      "pitch": 50,
      "velocity": 110
    },
    {
      "time": 53.5,
      "lane": 2,
      "pitch": 38,
      "velocity": 110
    },
    {
      "time": 53.5,
      "lane": 2,
      "pitch": 50,
      "velocity": 110
    },
    {
      "time": 54.0,
      "lane": 1,
      "pitch": 34,
      "velocity": 110
    },
    {
      "time": 54.0,
      "lane": 1,
      "pitch": 46,
      "velocity": 110
    },
    {
      "time": 55.0,
      "lane": 1,
      "pitch": 34,
      "velocity": 110
    },
    {
      "time": 55.0,
      "lane": 1,
      "pitch": 46,
      "velocity": 110
    },
    {
      "time": 55.5,
      "lane": 1,
      "pitch": 34,
      "velocity": 110
    },
    {
      "time": 55.5,
      "lane": 1,
      "pitch": 46,
      "velocity": 110
    },
    {
      "time": 56.5,
      "lane": 1,
      "pitch": 34,
      "velocity": 110
    },
    {
      "time": 56.5,
      "lane": 1,
      "pitch": 46,
      "velocity": 110
    },
    {
      "time": 57.0,
      "lane": 2,
      "pitch": 38,
      "velocity": 110
    },
    {
      "time": 57.0,
      "lane": 2,
      "pitch": 50,
      "velocity": 110
    },
    {
      "time": 58.0,
      "lane": 2,
      "pitch": 38,
      "velocity": 110
    },
    {
      "time": 58.0,
      "lane": 2,
      "pitch": 50,
      "velocity": 110
    },
    {
      "time": 58.5,
      "lane": 2,
      "pitch": 38,
      "velocity": 110
    },
    {
      "time": 58.5,
      "lane": 2,
      "pitch": 50,
      "velocity": 110
    },
    {
      "time": 59.5,
      "lane": 2,
      "pitch": 38,
      "velocity": 110
    },
    {
      "time": 59.5,
      "lane": 2,
      "pitch": 50,
      "velocity": 110
    },
    {
      "time": 60.0,
      "lane": 0,
      "pitch": 33,
      "velocity": 110
    },
    {
      "time": 60.0,
      "lane": 0,
      "pitch": 45,
      "velocity": 110
    },
    {
      "time": 61.0,
      "lane": 0,
      "pitch": 33,
      "velocity": 110
    },
    {
      "time": 61.0,
      "lane": 0,
      "pitch": 45,
      "velocity": 110
    },
    {
      "time": 61.5,
      "lane": 0,
      "pitch": 33,
      "velocity": 110
    },
    {
      "time": 61.5,
      "lane": 0,
      "pitch": 45,
      "velocity": 110
    },
    {
      "time": 62.5,
      "lane": 0,
      "pitch": 33,
      "velocity": 110
    },
    {
      "time": 62.5,
      "lane": 0,
      "pitch": 45,
      "velocity": 110
    },
    {
      "time": 63.0,
      "lane": 0,
      "pitch": 33,
      "velocity": 110
    },
    {
      "time": 63.0,
      "lane": 0,
      "pitch": 45,
      "velocity": 110
    },
    {
      "time": 64.0,
      "lane": 0,
      "pitch": 33,
      "velocity": 110
    },
    {
      "time": 64.0,
      "lane": 0,
      "pitch": 45,
      "velocity": 110
    },
    {
      "time": 64.5,
      "lane": 0,
      "pitch": 33,
      "velocity": 110
    },
    {
      "time": 64.5,
      "lane": 0,
      "pitch": 45,
      "velocity": 110
    },
    {
      "time": 65.5,
      "lane": 0,
      "pitch": 33,
      "velocity": 110
    },
    {
      "time": 65.5,
      "lane": 0,
      "pitch": 45,
      "velocity": 110
    },
    {
      "time": 66.0,
      "lane": 2,
      "pitch": 38,
      "velocity": 110
    },
    {
      "time": 66.0,
      "lane": 2,
      "pitch": 50,
      "velocity": 110
    },
    {
      "time": 67.0,
      "lane": 2,
      "pitch": 38,
      "velocity": 110
    },
    {
      "time": 67.0,
      "lane": 2,
      "pitch": 50,
      "velocity": 110
    },
    {
      "time": 67.5,
      "lane": 2,
      "pitch": 38,
      "velocity": 110
    },
    {
      "time": 67.5,
      "lane": 2,
      "pitch": 50,
      "velocity": 110
    },
    {
      "time": 68.5,
      "lane": 0,
      "pitch": 36,
      "velocity": 110
    },
    {
      "time": 68.5,
      "lane": 0,
      "pitch": 48,
      "velocity": 110
    },
    {
      "time": 69.0,
      "lane": 1,
      "pitch": 34,
      "velocity": 110
    },
    {
      "time": 69.0,
      "lane": 1,
      "pitch": 46,
      "velocity": 110
    },
    {
      "time": 70.0,
      "lane": 1,
      "pitch": 34,
      "velocity": 110
    },
    {
      "time": 70.0,
      "lane": 1,
      "pitch": 46,
      "velocity": 110
    },
    {
      "time": 70.5,
      "lane": 1,
      "pitch": 34,
      "velocity": 110
    },
    {
      "time": 70.5,
      "lane": 1,
      "pitch": 46,
      "velocity": 110
    },
    {
      "time": 71.5,
      "lane": 1,
      "pitch": 34,
      "velocity": 110
    },
    {
      "time": 71.5,
      "lane": 1,
      "pitch": 46,
      "velocity": 110
    },
    {
      "time": 72.0,
      "lane": 0,
      "pitch": 33,
      "velocity": 110
    },
    {
      "time": 72.0,
      "lane": 0,
      "pitch": 45,
      "velocity": 110
    },
    {
      "time": 73.0,
      "lane": 0,
      "pitch": 33,
      "velocity": 110
    },
    {
      "time": 73.0,
      "lane": 0,
      "pitch": 45,
      "velocity": 110
    },
    {
      "time": 73.5,
      "lane": 0,
      "pitch": 33,
      "velocity": 110
    },
    {
      "time": 73.5,
      "lane": 0,
      "pitch": 45,
      "velocity": 110
    },
    {
      "time": 74.5,
      "lane": 0,
      "pitch": 33,
      "velocity": 110
    },
    {
      "time": 74.5,
      "lane": 0,
      "pitch": 45,
      "velocity": 110
    },
    {
      "time": 75.0,
      "lane": 2,
      "pitch": 38,
      "velocity": 110
    },
    {
      "time": 75.0,
      "lane": 2,
      "pitch": 50,
      "velocity": 110
    },
    {
      "time": 76.0,
      "lane": 2,
      "pitch": 38,
      "velocity": 110
    },
    {
      "time": 76.0,
      "lane": 2,
      "pitch": 50,
      "velocity": 110
    },
    {
      "time": 76.5,
      "lane": 2,
      "pitch": 38,
      "velocity": 110
    },
    {
      "time": 76.5,
      "lane": 2,
      "pitch": 50,
      "velocity": 110
    },
    {
      "time": 77.5,
      "lane": 2,
      "pitch": 38,
      "velocity": 110
    },
    {
      "time": 77.5,
      "lane": 2,
      "pitch": 50,
      "velocity": 110
    },
    {
      "time": 78.0,
      "lane": 1,
      "pitch": 34,
      "velocity": 110
    },
    {
      "time": 78.0,
      "lane": 1,
      "pitch": 46,
      "velocity": 110
    },
    {
      "time": 79.0,
      "lane": 1,
      "pitch": 34,
      "velocity": 110
    },
    {
      "time": 79.0,
      "lane": 1,
      "pitch": 46,
      "velocity": 110
    },
    {
      "time": 79.5,
      "lane": 1,
      "pitch": 34,
      "velocity": 110
    },
    {
      "time": 79.5,
      "lane": 1,
      "pitch": 46,
      "velocity": 110
    },
    {
      "time": 80.5,
      "lane": 1,
      "pitch": 34,
      "velocity": 110
    },
    {
      "time": 80.5,
      "lane": 1,
      "pitch": 46,
      "velocity": 110
    },
    {
      "time": 81.0,
      "lane": 2,
      "pitch": 29,
      "velocity": 110
    },
    {
      "time": 81.0,
      "lane": 2,
      "pitch": 41,
      "velocity": 110
    },
    {
      "time": 82.0,
      "lane": 2,
      "pitch": 29,
      "velocity": 110
    },
    {
      "time": 82.0,
      "lane": 2,
      "pitch": 41,
      "velocity": 110
    },
    {
      "time": 82.5,
      "lane": 2,
      "pitch": 29,
      "velocity": 110
    },
    {
      "time": 82.5,
      "lane": 2,
      "pitch": 41,
      "velocity": 110
    },
    {
      "time": 83.5,
      "lane": 2,
      "pitch": 29,
      "velocity": 110
    },
    {
      "time": 83.5,
      "lane": 2,
      "pitch": 41,
      "velocity": 110
    },
    {
      "time": 84.0,
      "lane": 0,
      "pitch": 36,
      "velocity": 110
    },
    {
      "time": 84.0,
      "lane": 0,
      "pitch": 48,
      "velocity": 110
    },
    {
      "time": 85.0,
      "lane": 0,
      "pitch": 36,
      "velocity": 110
    },
    {
      "time": 85.0,
      "lane": 0,
      "pitch": 48,
      "velocity": 110
    },
    {
      "time": 85.5,
      "lane": 0,
      "pitch": 33,
      "velocity": 110
    },
    {
      "time": 85.5,
      "lane": 0,
      "pitch": 45,
      "velocity": 110
    },
    {
      "time": 86.5,
      "lane": 0,
      "pitch": 33,
      "velocity": 110
    },
    {
      "time": 86.5,
      "lane": 0,
      "pitch": 45,
      "velocity": 110
    },
    {
      "time": 87.0,
      "lane": 2,
      "pitch": 38,
      "velocity": 110
    },
    {
      "time": 87.0,
      "lane": 2,
      "pitch": 50,
      "velocity": 110
    },
    {
      "time": 88.0,
      "lane": 2,
      "pitch": 38,
      "velocity": 110
    },
    {
      "time": 88.0,
      "lane": 2,
      "pitch": 50,
      "velocity": 110
    },
    {
      "time": 88.5,
      "lane": 2,
      "pitch": 38,
      "velocity": 110
    },
    {
      "time": 88.5,
      "lane": 2,
      "pitch": 50,
      "velocity": 110
    },
    {
      "time": 89.5,
      "lane": 2,
      "pitch": 38,
      "velocity": 110
    },
    {
      "time": 89.5,
      "lane": 2,
      "pitch": 50,
      "velocity": 110
    },
    {
      "time": 90.0,
      "lane": 2,
      "pitch": 38,
      "velocity": 110
    },
    {
      "time": 90.0,
      "lane": 2,
      "pitch": 50,
      "velocity": 110
    },
    {
      "time": 91.0,
      "lane": 2,
      "pitch": 38,
      "velocity": 110
    },
    {
      "time": 91.0,
      "lane": 2,
      "pitch": 50,
      "velocity": 110
    },
    {
      "time": 91.5,
      "lane": 2,
      "pitch": 38,
      "velocity": 110
    },
    {
      "time": 91.5,
      "lane": 2,
      "pitch": 50,
      "velocity": 110
    },
    {
      "time": 92.5,
      "lane": 2,
      "pitch": 38,
      "velocity": 110
    },
    {
      "time": 92.5,
      "lane": 2,
      "pitch": 50,
      "velocity": 110
    },
    {
      "time": 93.0,
      "lane": 1,
      "pitch": 34,
      "velocity": 110
    },
    {
      "time": 93.0,
      "lane": 1,
      "pitch": 46,
      "velocity": 110
    },
    {
      "time": 94.0,
      "lane": 1,
      "pitch": 34,
      "velocity": 110
    },
    {
      "time": 94.0,
      "lane": 1,
      "pitch": 46,
      "velocity": 110
    },
    {
      "time": 94.5,
      "lane": 1,
      "pitch": 34,
      "velocity": 110
    },
    {
      "time": 94.5,
      "lane": 1,
      "pitch": 46,
      "velocity": 110
    },
    {
      "time": 95.5,
      "lane": 1,
      "pitch": 34,
      "velocity": 110
    },
    {
      "time": 95.5,
      "lane": 1,
      "pitch": 46,
      "velocity": 110
    },
    {
      "time": 96.0,
      "lane": 1,
      "pitch": 31,
      "velocity": 110
    },
    {
      "time": 96.0,
      "lane": 1,
      "pitch": 43,
      "velocity": 110
    },
    {
      "time": 97.0,
      "lane": 1,
      "pitch": 31,
      "velocity": 110
    },
    {
      "time": 97.0,
      "lane": 1,
      "pitch": 43,
      "velocity": 110
    },
    {
      "time": 97.5,
      "lane": 1,
      "pitch": 31,
      "velocity": 110
    },
    {
      "time": 97.5,
      "lane": 1,
      "pitch": 43,
      "velocity": 110
    },
    {
      "time": 98.5,
      "lane": 1,
      "pitch": 31,
      "velocity": 110
    },
    {
      "time": 98.5,
      "lane": 1,
      "pitch": 43,
      "velocity": 110
    },
    {
      "time": 99.0,
      "lane": 2,
      "pitch": 38,
      "velocity": 110
    },
    {
      "time": 99.0,
      "lane": 2,
      "pitch": 50,
      "velocity": 110
    },
    {
      "time": 100.0,
      "lane": 2,
      "pitch": 38,
      "velocity": 110
    },
    {
      "time": 100.0,
      "lane": 2,
      "pitch": 50,
      "velocity": 110
    },
    {
      "time": 100.5,
      "lane": 2,
      "pitch": 38,
      "velocity": 110
    },
    {
      "time": 100.5,
      "lane": 2,
      "pitch": 50,
      "velocity": 110
    },
    {
      "time": 101.5,
      "lane": 2,
      "pitch": 38,
      "velocity": 110
    },
    {
      "time": 101.5,
      "lane": 2,
      "pitch": 50,
      "velocity": 110
    },
    {
      "time": 102.0,
      "lane": 1,
      "pitch": 34,
      "velocity": 110
    },
    {
      "time": 102.0,
      "lane": 1,
      "pitch": 46,
      "velocity": 110
    },
    {
      "time": 103.0,
      "lane": 1,
      "pitch": 34,
      "velocity": 110
    },
    {
      "time": 103.0,
      "lane": 1,
      "pitch": 46,
      "velocity": 110
    },
    {
      "time": 103.5,
      "lane": 1,
      "pitch": 34,
      "velocity": 110
    },
    {
      "time": 103.5,
      "lane": 1,
      "pitch": 46,
      "velocity": 110
    },
    {
      "time": 104.5,
      "lane": 1,
      "pitch": 34,
      "velocity": 110
    },
    {
      "time": 104.5,
      "lane": 1,
      "pitch": 46,
      "velocity": 110
    },
    {
      "time": 105.0,
      "lane": 2,
      "pitch": 38,
      "velocity": 110
    },
    {
      "time": 105.0,
      "lane": 2,
      "pitch": 50,
      "velocity": 110
    },
    {
      "time": 106.0,
      "lane": 2,
      "pitch": 38,
      "velocity": 110
    },
    {
      "time": 106.0,
      "lane": 2,
      "pitch": 50,
      "velocity": 110
    },
    {
      "time": 106.5,
      "lane": 2,
      "pitch": 38,
      "velocity": 110
    },
    {
      "time": 106.5,
      "lane": 2,
      "pitch": 50,
      "velocity": 110
    },
    {
      "time": 107.5,
      "lane": 2,
      "pitch": 38,
      "velocity": 110
    },
    {
      "time": 107.5,
      "lane": 2,
      "pitch": 50,
      "velocity": 110
    },
    {
      "time": 108.0,
      "lane": 0,
      "pitch": 33,
      "velocity": 110
    },
    {
      "time": 108.0,
      "lane": 0,
      "pitch": 45,
      "velocity": 110
    },
    {
      "time": 109.0,
      "lane": 0,
      "pitch": 33,
      "velocity": 110
    },
    {
      "time": 109.0,
      "lane": 0,
      "pitch": 45,
      "velocity": 110
    },
    {
      "time": 109.5,
      "lane": 0,
      "pitch": 33,
      "velocity": 110
    },
    {
      "time": 109.5,
      "lane": 0,
      "pitch": 45,
      "velocity": 110
    },
    {
      "time": 110.5,
      "lane": 0,
      "pitch": 33,
      "velocity": 110
    },
    {
      "time": 110.5,
      "lane": 0,
      "pitch": 45,
      "velocity": 110
    },
    {
      "time": 111.0,
      "lane": 2,
      "pitch": 38,
      "velocity": 110
    },
    {
      "time": 111.0,
      "lane": 2,
      "pitch": 50,
      "velocity": 110
    },
    {
      "time": 112.0,
      "lane": 2,
      "pitch": 38,
      "velocity": 110
    },
    {
      "time": 112.0,
      "lane": 2,
      "pitch": 50,
      "velocity": 110
    },
    {
      "time": 113.0,
      "lane": 0,
      "pitch": 36,
      "velocity": 110
    },
    {
      "time": 113.0,
      "lane": 0,
      "pitch": 48,
      "velocity": 110
    },
    {
      "time": 114.0,
      "lane": 0,
      "pitch": 36,
      "velocity": 110
    },
    {
      "time": 114.0,
      "lane": 0,
      "pitch": 48,
      "velocity": 110
    },
    {
      "time": 115.0,
      "lane": 0,
      "pitch": 36,
      "velocity": 110
    },
    {
      "time": 115.0,
      "lane": 0,
      "pitch": 48,
      "velocity": 110
    },
    {
      "time": 116.0,
      "lane": 1,
      "pitch": 34,
      "velocity": 110
    },
    {
      "time": 116.0,
      "lane": 1,
      "pitch": 46,
      "velocity": 110
    },
    {
      "time": 117.0,
      "lane": 0,
      "pitch": 33,
      "velocity": 110
    },
    {
      "time": 117.0,
      "lane": 0,
      "pitch": 45,
      "velocity": 110
    },
    {
      "time": 118.0,
      "lane": 0,
      "pitch": 33,
      "velocity": 110
    },
    {
      "time": 118.0,
      "lane": 0,
      "pitch": 45,
      "velocity": 110
    },
    {
      "time": 118.5,
      "lane": 0,
      "pitch": 33,
      "velocity": 110
    },
    {
      "time": 118.5,
      "lane": 0,
      "pitch": 45,
      "velocity": 110
    },
    {
      "time": 119.5,
      "lane": 0,
      "pitch": 33,
      "velocity": 110
    },
    {
      "time": 119.5,
      "lane": 0,
      "pitch": 45,
      "velocity": 110
    },
    {
      "time": 120.0,
      "lane": 0,
      "pitch": 33,
      "velocity": 110
    },
    {
      "time": 120.0,
      "lane": 0,
      "pitch": 45,
      "velocity": 110
    },
    {
      "time": 121.0,
      "lane": 0,
      "pitch": 33,
      "velocity": 110
    },
    {
      "time": 121.0,
      "lane": 0,
      "pitch": 45,
      "velocity": 110
    },
    {
      "time": 121.5,
      "lane": 0,
      "pitch": 33,
      "velocity": 110
    },
    {
      "time": 121.5,
      "lane": 0,
      "pitch": 45,
      "velocity": 110
    },
    {
      "time": 122.5,
      "lane": 0,
      "pitch": 33,
      "velocity": 110
    },
    {
      "time": 122.5,
      "lane": 0,
      "pitch": 45,
      "velocity": 110
    },
    {
      "time": 123.0,
      "lane": 1,
      "pitch": 31,
      "velocity": 110
    },
    {
      "time": 123.0,
      "lane": 1,
      "pitch": 43,
      "velocity": 110
    },
    {
      "time": 124.0,
      "lane": 1,
      "pitch": 31,
      "velocity": 110
    },
    {
      "time": 124.0,
      "lane": 1,
      "pitch": 43,
      "velocity": 110
    },
    {
      "time": 124.5,
      "lane": 1,
      "pitch": 31,
      "velocity": 110
    },
    {
      "time": 124.5,
      "lane": 1,
      "pitch": 43,
      "velocity": 110
    },
    {
      "time": 125.5,
      "lane": 1,
      "pitch": 31,
      "velocity": 110
    },
    {
      "time": 125.5,
      "lane": 1,
      "pitch": 43,
      "velocity": 110
    },
    {
      "time": 126.0,
      "lane": 1,
      "pitch": 31,
      "velocity": 110
    },
    {
      "time": 126.0,
      "lane": 1,
      "pitch": 43,
      "velocity": 110
    },
    {
      "time": 127.0,
      "lane": 1,
      "pitch": 31,
      "velocity": 110
    },
    {
      "time": 127.0,
      "lane": 1,
      "pitch": 43,
      "velocity": 110
    },
    {
      "time": 127.5,
      "lane": 1,
      "pitch": 31,
      "velocity": 110
    },
    {
      "time": 127.5,
      "lane": 1,
      "pitch": 43,
      "velocity": 110
    },
    {
      "time": 128.5,
      "lane": 1,
      "pitch": 31,
      "velocity": 110
    },
    {
      "time": 128.5,
      "lane": 1,
      "pitch": 43,
      "velocity": 110
    },
    {
      "time": 129.0,
      "lane": 0,
      "pitch": 33,
      "velocity": 110
    },
    {
      "time": 129.0,
      "lane": 0,
      "pitch": 45,
      "velocity": 110
    },
    {
      "time": 130.0,
      "lane": 0,
      "pitch": 33,
      "velocity": 110
    },
    {
      "time": 130.0,
      "lane": 0,
      "pitch": 45,
      "velocity": 110
    },
    {
      "time": 130.5,
      "lane": 0,
      "pitch": 33,
      "velocity": 110
    },
    {
      "time": 130.5,
      "lane": 0,
      "pitch": 45,
      "velocity": 110
    },
    {
      "time": 131.5,
      "lane": 0,
      "pitch": 33,
      "velocity": 110
    },
    {
      "time": 131.5,
      "lane": 0,
      "pitch": 45,
      "velocity": 110
    },
    {
      "time": 132.0,
      "lane": 0,
      "pitch": 33,
      "velocity": 110
    },
    {
      "time": 132.0,
      "lane": 0,
      "pitch": 45,
      "velocity": 110
    },
    {
      "time": 133.0,
      "lane": 0,
      "pitch": 33,
      "velocity": 110
    },
    {
      "time": 133.0,
      "lane": 0,
      "pitch": 45,
      "velocity": 110
    },
    {
      "time": 133.5,
      "lane": 0,
      "pitch": 33,
      "velocity": 110
    },
    {
      "time": 133.5,
      "lane": 0,
      "pitch": 45,
      "velocity": 110
    },
    {
      "time": 134.5,
      "lane": 0,
      "pitch": 33,
      "velocity": 110
    },
    {
      "time": 134.5,
      "lane": 0,
      "pitch": 45,
      "velocity": 110
    },
    {
      "time": 135.0,
      "lane": 2,
      "pitch": 38,
      "velocity": 110
    },
    {
      "time": 135.0,
      "lane": 2,
      "pitch": 50,
      "velocity": 110
    },
    {
      "time": 136.0,
      "lane": 2,
      "pitch": 38,
      "velocity": 110
    },
    {
      "time": 136.0,
      "lane": 2,
      "pitch": 50,
      "velocity": 110
    },
    {
      "time": 136.5,
      "lane": 2,
      "pitch": 38,
      "velocity": 110
    },
    {
      "time": 136.5,
      "lane": 2,
      "pitch": 50,
      "velocity": 110
    },
    {
      "time": 137.5,
      "lane": 2,
      "pitch": 38,
      "velocity": 110
    },
    {
      "time": 137.5,
      "lane": 2,
      "pitch": 50,
      "velocity": 110
    },
    {
      "time": 138.0,
      "lane": 2,
      "pitch": 38,
      "velocity": 110
    },
    {
      "time": 138.0,
      "lane": 2,
      "pitch": 50,
      "velocity": 110
    },
    {
      "time": 139.0,
      "lane": 2,
      "pitch": 38,
      "velocity": 110
    },
    {
      "time": 139.0,
      "lane": 2,
      "pitch": 50,
      "velocity": 110
    },
    {
      "time": 139.5,
      "lane": 2,
      "pitch": 38,
      "velocity": 110
    },
    {
      "time": 139.5,
      "lane": 2,
      "pitch": 50,
      "velocity": 110
    },
    {
      "time": 140.0,
      "lane": 2,
      "pitch": 38,
      "velocity": 110
    },
    {
      "time": 140.0,
      "lane": 2,
      "pitch": 50,
      "velocity": 110
    },
    {
      "time": 140.5,
      "lane": 2,
      "pitch": 38,
      "velocity": 110
    },
    {
      "time": 140.5,
      "lane": 2,
      "pitch": 50,
      "velocity": 110
    },
    {
      "time": 141.0,
      "lane": 0,
      "pitch": 36,
      "velocity": 110
    },
    {
      "time": 141.0,
      "lane": 0,
      "pitch": 48,
      "velocity": 110
    },
    {
      "time": 142.0,
      "lane": 0,
      "pitch": 36,
      "velocity": 110
    },
    {
      "time": 142.0,
      "lane": 0,
      "pitch": 48,
      "velocity": 110
    },
    {
      "time": 142.5,
      "lane": 0,
      "pitch": 36,
      "velocity": 110
    },
    {
      "time": 142.5,
      "lane": 0,
      "pitch": 48,
      "velocity": 110
    },
    {
      "time": 143.5,
      "lane": 0,
      "pitch": 36,
      "velocity": 110
    },
    {
      "time": 143.5,
      "lane": 0,
      "pitch": 48,
      "velocity": 110
    },
    {
      "time": 144.0,
      "lane": 2,
      "pitch": 41,
      "velocity": 110
    },
    {
      "time": 144.0,
      "lane": 2,
      "pitch": 53,
      "velocity": 110
    },
    {
      "time": 145.0,
      "lane": 2,
      "pitch": 41,
      "velocity": 110
    },
    {
      "time": 145.0,
      "lane": 2,
      "pitch": 53,
      "velocity": 110
    },
    {
      "time": 145.5,
      "lane": 2,
      "pitch": 41,
      "velocity": 110
    },
    {
      "time": 145.5,
      "lane": 2,
      "pitch": 53,
      "velocity": 110
    },
    {
      "time": 146.0,
      "lane": 2,
      "pitch": 41,
      "velocity": 110
    },
    {
      "time": 146.0,
      "lane": 2,
      "pitch": 53,
      "velocity": 110
    },
    {
      "time": 146.5,
      "lane": 2,
      "pitch": 41,
      "velocity": 110
    },
    {
      "time": 146.5,
      "lane": 2,
      "pitch": 53,
      "velocity": 110
    },
    {
      "time": 147.0,
      "lane": 2,
      "pitch": 38,
      "velocity": 110
    },
    {
      "time": 147.0,
      "lane": 2,
      "pitch": 50,
      "velocity": 110
    },
    {
      "time": 148.0,
      "lane": 2,
      "pitch": 38,
      "velocity": 110
    },
    {
      "time": 148.0,
      "lane": 2,
      "pitch": 50,
      "velocity": 110
    },
    {
      "time": 148.5,
      "lane": 2,
      "pitch": 38,
      "velocity": 110
    },
    {
      "time": 148.5,
      "lane": 2,
      "pitch": 50,
      "velocity": 110
    },
    {
      "time": 149.5,
      "lane": 2,
      "pitch": 38,
      "velocity": 110
    },
    {
      "time": 149.5,
      "lane": 2,
      "pitch": 50,
      "velocity": 110
    },
    {
      "time": 150.0,
      "lane": 2,
      "pitch": 38,
      "velocity": 110
    },
    {
      "time": 150.0,
      "lane": 2,
      "pitch": 50,
      "velocity": 110
    },
    {
      "time": 151.0,
      "lane": 2,
      "pitch": 38,
      "velocity": 110
    },
    {
      "time": 151.0,
      "lane": 2,
      "pitch": 50,
      "velocity": 110
    },
    {
      "time": 151.5,
      "lane": 2,
      "pitch": 38,
      "velocity": 110
    },
    {
      "time": 151.5,
      "lane": 2,
      "pitch": 50,
      "velocity": 110
    },
    {
      "time": 152.0,
      "lane": 2,
      "pitch": 38,
      "velocity": 110
    },
    {
      "time": 152.0,
      "lane": 2,
      "pitch": 50,
      "velocity": 110
    },
    {
      "time": 152.5,
      "lane": 2,
      "pitch": 38,
      "velocity": 110
    },
    {
      "time": 152.5,
      "lane": 2,
      "pitch": 50,
      "velocity": 110
    },
    {
      "time": 153.0,
      "lane": 0,
      "pitch": 33,
      "velocity": 110
    },
    {
      "time": 153.0,
      "lane": 0,
      "pitch": 45,
      "velocity": 110
    },
    {
      "time": 154.0,
      "lane": 0,
      "pitch": 33,
      "velocity": 110
    },
    {
      "time": 154.0,
      "lane": 0,
      "pitch": 45,
      "velocity": 110
    },
    {
      "time": 154.5,
      "lane": 0,
      "pitch": 33,
      "velocity": 110
    },
    {
      "time": 154.5,
      "lane": 0,
      "pitch": 45,
      "velocity": 110
    },
    {
      "time": 155.5,
      "lane": 0,
      "pitch": 33,
      "velocity": 110
    },
    {
      "time": 155.5,
      "lane": 0,
      "pitch": 45,
      "velocity": 110
    },
    {
      "time": 156.0,
      "lane": 2,
      "pitch": 38,
      "velocity": 110
    },
    {
      "time": 156.0,
      "lane": 2,
      "pitch": 50,
      "velocity": 110
    },
    {
      "time": 157.0,
      "lane": 2,
      "pitch": 38,
      "velocity": 110
    },
    {
      "time": 157.0,
      "lane": 2,
      "pitch": 50,
      "velocity": 110
    },
    {
      "time": 157.5,
      "lane": 2,
      "pitch": 38,
      "velocity": 110
    },
    {
      "time": 157.5,
      "lane": 2,
      "pitch": 50,
      "velocity": 110
    },
    {
      "time": 158.5,
      "lane": 2,
      "pitch": 38,
      "velocity": 110
    },
    {
      "time": 158.5,
      "lane": 2,
      "pitch": 50,
      "velocity": 110
    },
    {
      "time": 159.0,
      "lane": 2,
      "pitch": 38,
      "velocity": 110
    },
    {
      "time": 159.0,
      "lane": 2,
      "pitch": 50,
      "velocity": 110
    },
    {
      "time": 160.0,
      "lane": 2,
      "pitch": 38,
      "velocity": 110
    },
    {
      "time": 160.0,
      "lane": 2,
      "pitch": 50,
      "velocity": 110
    },
    {
      "time": 160.5,
      "lane": 2,
      "pitch": 38,
      "velocity": 110
    },
    {
      "time": 160.5,
      "lane": 2,
      "pitch": 50,
      "velocity": 110
    },
    {
      "time": 161.5,
      "lane": 2,
      "pitch": 38,
      "velocity": 110
    },
    {
      "time": 161.5,
      "lane": 2,
      "pitch": 50,
      "velocity": 110
    },
    {
      "time": 162.0,
      "lane": 0,
      "pitch": 36,
      "velocity": 110
    },
    {
      "time": 162.0,
      "lane": 0,
      "pitch": 48,
      "velocity": 110
    },
    {
      "time": 163.0,
      "lane": 0,
      "pitch": 36,
      "velocity": 110
    },
    {
      "time": 163.0,
      "lane": 0,
      "pitch": 48,
      "velocity": 110
    },
    {
      "time": 163.5,
      "lane": 0,
      "pitch": 36,
      "velocity": 110
    },
    {
      "time": 163.5,
      "lane": 0,
      "pitch": 48,
      "velocity": 110
    },
    {
      "time": 164.0,
      "lane": 0,
      "pitch": 36,
      "velocity": 110
    },
    {
      "time": 164.0,
      "lane": 0,
      "pitch": 48,
      "velocity": 110
    },
    {
      "time": 164.5,
      "lane": 0,
      "pitch": 36,
      "velocity": 110
    },
    {
      "time": 164.5,
      "lane": 0,
      "pitch": 48,
      "velocity": 110
    },
    {
      "time": 165.0,
      "lane": 2,
      "pitch": 41,
      "velocity": 110
    },
    {
      "time": 165.0,
      "lane": 2,
      "pitch": 53,
      "velocity": 110
    },
    {
      "time": 166.0,
      "lane": 2,
      "pitch": 41,
      "velocity": 110
    },
    {
      "time": 166.0,
      "lane": 2,
      "pitch": 53,
      "velocity": 110
    },
    {
      "time": 166.5,
      "lane": 2,
      "pitch": 41,
      "velocity": 110
    },
    {
      "time": 166.5,
      "lane": 2,
      "pitch": 53,
      "velocity": 110
    },
    {
      "time": 167.0,
      "lane": 2,
      "pitch": 41,
      "velocity": 110
    },
    {
      "time": 167.0,
      "lane": 2,
      "pitch": 53,
      "velocity": 110
    },
    {
      "time": 167.5,
      "lane": 2,
      "pitch": 41,
      "velocity": 110
    },
    {
      "time": 167.5,
      "lane": 2,
      "pitch": 53,
      "velocity": 110
    },
    {
      "time": 168.0,
      "lane": 0,
      "pitch": 36,
      "velocity": 110
    },
    {
      "time": 168.0,
      "lane": 0,
      "pitch": 48,
      "velocity": 110
    },
    {
      "time": 169.0,
      "lane": 0,
      "pitch": 36,
      "velocity": 110
    },
    {
      "time": 169.0,
      "lane": 0,
      "pitch": 48,
      "velocity": 110
    },
    {
      "time": 169.5,
      "lane": 0,
      "pitch": 36,
      "velocity": 110
    },
    {
      "time": 169.5,
      "lane": 0,
      "pitch": 48,
      "velocity": 110
    },
    {
      "time": 170.0,
      "lane": 0,
      "pitch": 36,
      "velocity": 110
    },
    {
      "time": 170.0,
      "lane": 0,
      "pitch": 48,
      "velocity": 110
    },
    {
      "time": 170.5,
      "lane": 0,
      "pitch": 36,
      "velocity": 110
    },
    {
      "time": 170.5,
      "lane": 0,
      "pitch": 48,
      "velocity": 110
    },
    {
      "time": 171.0,
      "lane": 2,
      "pitch": 41,
      "velocity": 110
    },
    {
      "time": 171.0,
      "lane": 2,
      "pitch": 53,
      "velocity": 110
    },
    {
      "time": 172.0,
      "lane": 2,
      "pitch": 41,
      "velocity": 110
    },
    {
      "time": 172.0,
      "lane": 2,
      "pitch": 53,
      "velocity": 110
    },
    {
      "time": 172.5,
      "lane": 2,
      "pitch": 41,
      "velocity": 110
    },
    {
      "time": 172.5,
      "lane": 2,
      "pitch": 53,
      "velocity": 110
    },
    {
      "time": 173.0,
      "lane": 2,
      "pitch": 41,
      "velocity": 110
    },
    {
      "time": 173.0,
      "lane": 2,
      "pitch": 53,
      "velocity": 110
    },
    {
      "time": 173.5,
      "lane": 2,
      "pitch": 41,
      "velocity": 110
    },
    {
      "time": 173.5,
      "lane": 2,
      "pitch": 53,
      "velocity": 110
    },
    {
      "time": 174.0,
      "lane": 0,
      "pitch": 33,
      "velocity": 110
    },
    {
      "time": 174.0,
      "lane": 0,
      "pitch": 45,
      "velocity": 110
    },
    {
      "time": 175.0,
      "lane": 0,
      "pitch": 33,
      "velocity": 110
    },
    {
      "time": 175.0,
      "lane": 0,
      "pitch": 45,
      "velocity": 110
    },
    {
      "time": 175.5,
      "lane": 0,
      "pitch": 33,
      "velocity": 110
    },
    {
      "time": 175.5,
      "lane": 0,
      "pitch": 45,
      "velocity": 110
    },
    {
      "time": 176.0,
      "lane": 0,
      "pitch": 33,
      "velocity": 110
    },
    {
      "time": 176.0,
      "lane": 0,
      "pitch": 45,
      "velocity": 110
    },
    {
      "time": 176.5,
      "lane": 0,
      "pitch": 33,
      "velocity": 110
    },
    {
      "time": 176.5,
      "lane": 0,
      "pitch": 45,
      "velocity": 110
    },
    {
      "time": 177.0,
      "lane": 2,
      "pitch": 38,
      "velocity": 110
    },
    {
      "time": 177.0,
      "lane": 2,
      "pitch": 50,
      "velocity": 110
    },
    {
      "time": 178.0,
      "lane": 2,
      "pitch": 38,
      "velocity": 110
    },
    {
      "time": 178.0,
      "lane": 2,
      "pitch": 50,
      "velocity": 110
    },
    {
      "time": 178.5,
      "lane": 2,
      "pitch": 38,
      "velocity": 110
    },
    {
      "time": 178.5,
      "lane": 2,
      "pitch": 50,
      "velocity": 110
    },
    {
      "time": 179.5,
      "lane": 2,
      "pitch": 38,
      "velocity": 110
    },
    {
      "time": 179.5,
      "lane": 2,
      "pitch": 50,
      "velocity": 110
    },
    {
      "time": 180.0,
      "lane": 2,
      "pitch": 38,
      "velocity": 110
    },
    {
      "time": 180.0,
      "lane": 2,
      "pitch": 50,
      "velocity": 110
    },
    {
      "time": 181.0,
      "lane": 2,
      "pitch": 38,
      "velocity": 110
    },
    {
      "time": 181.0,
      "lane": 2,
      "pitch": 50,
      "velocity": 110
    },
    {
      "time": 181.5,
      "lane": 2,
      "pitch": 38,
      "velocity": 110
    },
    {
      "time": 181.5,
      "lane": 2,
      "pitch": 50,
      "velocity": 110
    },
    {
      "time": 182.0,
      "lane": 2,
      "pitch": 38,
      "velocity": 110
    },
    {
      "time": 182.0,
      "lane": 2,
      "pitch": 50,
      "velocity": 110
    },
    {
      "time": 182.5,
      "lane": 2,
      "pitch": 38,
      "velocity": 110
    },
    {
      "time": 182.5,
      "lane": 2,
      "pitch": 50,
      "velocity": 110
    },
    {
      "time": 183.0,
      "lane": 2,
      "pitch": 38,
      "velocity": 110
    },
    {
      "time": 183.0,
      "lane": 2,
      "pitch": 50,
      "velocity": 110
    },
    {
      "time": 184.0,
      "lane": 2,
      "pitch": 38,
      "velocity": 110
    },
    {
      "time": 184.0,
      "lane": 2,
      "pitch": 50,
      "velocity": 110
    },
    {
      "time": 184.5,
      "lane": 2,
      "pitch": 38,
      "velocity": 110
    },
    {
      "time": 184.5,
      "lane": 2,
      "pitch": 50,
      "velocity": 110
    },
    {
      "time": 185.0,
      "lane": 2,
      "pitch": 38,
      "velocity": 110
    },
    {
      "time": 185.0,
      "lane": 2,
      "pitch": 50,
      "velocity": 110
    },
    {
      "time": 185.5,
      "lane": 2,
      "pitch": 38,
      "velocity": 110
    },
    {
      "time": 185.5,
      "lane": 2,
      "pitch": 50,
      "velocity": 110
    },
    {
      "time": 186.0,
      "lane": 0,
      "pitch": 36,
      "velocity": 110
    },
    {
      "time": 186.0,
      "lane": 0,
      "pitch": 48,
      "velocity": 110
    },
    {
      "time": 187.0,
      "lane": 0,
      "pitch": 36,
      "velocity": 110
    },
    {
      "time": 187.0,
      "lane": 0,
      "pitch": 48,
      "velocity": 110
    },
    {
      "time": 187.5,
      "lane": 0,
      "pitch": 36,
      "velocity": 110
    },
    {
      "time": 187.5,
      "lane": 0,
      "pitch": 48,
      "velocity": 110
    },
    {
      "time": 188.0,
      "lane": 0,
      "pitch": 36,
      "velocity": 110
    },
    {
      "time": 188.0,
      "lane": 0,
      "pitch": 48,
      "velocity": 110
    },
    {
      "time": 188.5,
      "lane": 0,
      "pitch": 36,
      "velocity": 110
    },
    {
      "time": 188.5,
      "lane": 0,
      "pitch": 48,
      "velocity": 110
    },
    {
      "time": 189.0,
      "lane": 2,
      "pitch": 41,
      "velocity": 110
    },
    {
      "time": 189.0,
      "lane": 2,
      "pitch": 53,
      "velocity": 110
    },
    {
      "time": 190.0,
      "lane": 2,
      "pitch": 41,
      "velocity": 110
    },
    {
      "time": 190.0,
      "lane": 2,
      "pitch": 53,
      "velocity": 110
    },
    {
      "time": 190.5,
      "lane": 2,
      "pitch": 41,
      "velocity": 110
    },
    {
      "time": 190.5,
      "lane": 2,
      "pitch": 53,
      "velocity": 110
    },
    {
      "time": 191.0,
      "lane": 2,
      "pitch": 41,
      "velocity": 110
    },
    {
      "time": 191.0,
      "lane": 2,
      "pitch": 53,
      "velocity": 110
    },
    {
      "time": 191.5,
      "lane": 2,
      "pitch": 41,
      "velocity": 110
    },
    {
      "time": 191.5,
      "lane": 2,
      "pitch": 53,
      "velocity": 110
    },
    {
      "time": 192.0,
      "lane": 1,
      "pitch": 34,
      "velocity": 110
    },
    {
      "time": 192.0,
      "lane": 1,
      "pitch": 46,
      "velocity": 110
    },
    {
      "time": 193.0,
      "lane": 1,
      "pitch": 34,
      "velocity": 110
    },
    {
      "time": 193.0,
      "lane": 1,
      "pitch": 46,
      "velocity": 110
    },
    {
      "time": 193.5,
      "lane": 1,
      "pitch": 34,
      "velocity": 110
    },
    {
      "time": 193.5,
      "lane": 1,
      "pitch": 46,
      "velocity": 110
    },
    {
      "time": 194.0,
      "lane": 1,
      "pitch": 34,
      "velocity": 110
    },
    {
      "time": 194.0,
      "lane": 1,
      "pitch": 46,
      "velocity": 110
    },
    {
      "time": 194.5,
      "lane": 1,
      "pitch": 34,
      "velocity": 110
    },
    {
      "time": 194.5,
      "lane": 1,
      "pitch": 46,
      "velocity": 110
    },
    {
      "time": 195.0,
      "lane": 2,
      "pitch": 38,
      "velocity": 110
    },
    {
      "time": 195.0,
      "lane": 2,
      "pitch": 50,
      "velocity": 110
    },
    {
      "time": 196.0,
      "lane": 2,
      "pitch": 38,
      "velocity": 110
    },
    {
      "time": 196.0,
      "lane": 2,
      "pitch": 50,
      "velocity": 110
    },
    {
      "time": 196.5,
      "lane": 2,
      "pitch": 38,
      "velocity": 110
    },
    {
      "time": 196.5,
      "lane": 2,
      "pitch": 50,
      "velocity": 110
    },
    {
      "time": 197.0,
      "lane": 2,
      "pitch": 38,
      "velocity": 110
    },
    {
      "time": 197.0,
      "lane": 2,
      "pitch": 50,
      "velocity": 110
    },
    {
      "time": 197.5,
      "lane": 2,
      "pitch": 38,
      "velocity": 110
    },
    {
      "time": 197.5,
      "lane": 2,
      "pitch": 50,
      "velocity": 110
    },
    {
      "time": 198.0,
      "lane": 1,
      "pitch": 31,
      "velocity": 110
    },
    {
      "time": 198.0,
      "lane": 1,
      "pitch": 43,
      "velocity": 110
    },
    {
      "time": 199.0,
      "lane": 1,
      "pitch": 31,
      "velocity": 110
    },
    {
      "time": 199.0,
      "lane": 1,
      "pitch": 43,
      "velocity": 110
    },
    {
      "time": 199.5,
      "lane": 1,
      "pitch": 31,
      "velocity": 110
    },
    {
      "time": 199.5,
      "lane": 1,
      "pitch": 43,
      "velocity": 110
    },
    {
      "time": 200.0,
      "lane": 1,
      "pitch": 31,
      "velocity": 110
    },
    {
      "time": 200.0,
      "lane": 1,
      "pitch": 43,
      "velocity": 110
    },
    {
      "time": 200.5,
      "lane": 1,
      "pitch": 31,
      "velocity": 110
    },
    {
      "time": 200.5,
      "lane": 1,
      "pitch": 43,
      "velocity": 110
    },
    {
      "time": 201.0,
      "lane": 0,
      "pitch": 33,
      "velocity": 110
    },
    {
      "time": 201.0,
      "lane": 0,
      "pitch": 45,
      "velocity": 110
    },
    {
      "time": 202.0,
      "lane": 0,
      "pitch": 33,
      "velocity": 110
    },
    {
      "time": 202.0,
      "lane": 0,
      "pitch": 45,
      "velocity": 110
    },
    {
      "time": 202.5,
      "lane": 0,
      "pitch": 33,
      "velocity": 110
    },
    {
      "time": 202.5,
      "lane": 0,
      "pitch": 45,
      "velocity": 110
    },
    {
      "time": 203.0,
      "lane": 0,
      "pitch": 33,
      "velocity": 110
    },
    {
      "time": 203.0,
      "lane": 0,
      "pitch": 45,
      "velocity": 110
    },
    {
      "time": 203.5,
      "lane": 0,
      "pitch": 33,
      "velocity": 110
    },
    {
      "time": 203.5,
      "lane": 0,
      "pitch": 45,
      "velocity": 110
    },
    {
      "time": 204.0,
      "lane": 0,
      "pitch": 33,
      "velocity": 110
    },
    {
      "time": 204.0,
      "lane": 0,
      "pitch": 45,
      "velocity": 110
    },
    {
      "time": 205.0,
      "lane": 0,
      "pitch": 33,
      "velocity": 110
    },
    {
      "time": 205.0,
      "lane": 0,
      "pitch": 45,
      "velocity": 110
    },
    {
      "time": 205.5,
      "lane": 0,
      "pitch": 33,
      "velocity": 110
    },
    {
      "time": 205.5,
      "lane": 0,
      "pitch": 45,
      "velocity": 110
    },
    {
      "time": 206.0,
      "lane": 0,
      "pitch": 33,
      "velocity": 110
    },
    {
      "time": 206.0,
      "lane": 0,
      "pitch": 45,
      "velocity": 110
    },
    {
      "time": 206.5,
      "lane": 0,
      "pitch": 33,
      "velocity": 110
    },
    {
      "time": 206.5,
      "lane": 0,
      "pitch": 45,
      "velocity": 110
    },
    {
      "time": 207.0,
      "lane": 2,
      "pitch": 38,
      "velocity": 110
    },
    {
      "time": 207.0,
      "lane": 2,
      "pitch": 50,
      "velocity": 110
    },
    {
      "time": 208.0,
      "lane": 2,
      "pitch": 38,
      "velocity": 110
    },
    {
      "time": 208.0,
      "lane": 2,
      "pitch": 50,
      "velocity": 110
    },
    {
      "time": 208.5,
      "lane": 2,
      "pitch": 38,
      "velocity": 110
    },
    {
      "time": 208.5,
      "lane": 2,
      "pitch": 50,
      "velocity": 110
    },
    {
      "time": 209.0,
      "lane": 2,
      "pitch": 38,
      "velocity": 110
    },
    {
      "time": 209.0,
      "lane": 2,
      "pitch": 50,
      "velocity": 110
    },
    {
      "time": 209.5,
      "lane": 2,
      "pitch": 38,
      "velocity": 110
    },
    {
      "time": 209.5,
      "lane": 2,
      "pitch": 50,
      "velocity": 110
    },
    {
      "time": 210.0,
      "lane": 1,
      "pitch": 31,
      "velocity": 110
    },
    {
      "time": 210.0,
      "lane": 1,
      "pitch": 43,
      "velocity": 110
    },
    {
      "time": 211.0,
      "lane": 1,
      "pitch": 31,
      "velocity": 110
    },
    {
      "time": 211.0,
      "lane": 1,
      "pitch": 43,
      "velocity": 110
    },
    {
      "time": 211.5,
      "lane": 1,
      "pitch": 31,
      "velocity": 110
    },
    {
      "time": 211.5,
      "lane": 1,
      "pitch": 43,
      "velocity": 110
    },
    {
      "time": 212.0,
      "lane": 1,
      "pitch": 31,
      "velocity": 110
    },
    {
      "time": 212.0,
      "lane": 1,
      "pitch": 43,
      "velocity": 110
    },
    {
      "time": 212.5,
      "lane": 1,
      "pitch": 31,
      "velocity": 110
    },
    {
      "time": 212.5,
      "lane": 1,
      "pitch": 43,
      "velocity": 110
    },
    {
      "time": 213.0,
      "lane": 2,
      "pitch": 41,
      "velocity": 110
    },
    {
      "time": 213.0,
      "lane": 2,
      "pitch": 53,
      "velocity": 110
    },
    {
      "time": 214.0,
      "lane": 2,
      "pitch": 41,
      "velocity": 110
    },
    {
      "time": 214.0,
      "lane": 2,
      "pitch": 53,
      "velocity": 110
    },
    {
      "time": 214.5,
      "lane": 2,
      "pitch": 41,
      "velocity": 110
    },
    {
      "time": 214.5,
      "lane": 2,
      "pitch": 53,
      "velocity": 110
    },
    {
      "time": 215.5,
      "lane": 2,
      "pitch": 41,
      "velocity": 110
    },
    {
      "time": 215.5,
      "lane": 2,
      "pitch": 53,
      "velocity": 110
    },
    {
      "time": 216.0,
      "lane": 0,
      "pitch": 36,
      "velocity": 110
    },
    {
      "time": 216.0,
      "lane": 0,
      "pitch": 48,
      "velocity": 110
    },
    {
      "time": 217.0,
      "lane": 0,
      "pitch": 36,
      "velocity": 110
    },
    {
      "time": 217.0,
      "lane": 0,
      "pitch": 48,
      "velocity": 110
    },
    {
      "time": 217.5,
      "lane": 0,
      "pitch": 36,
      "velocity": 110
    },
    {
      "time": 217.5,
      "lane": 0,
      "pitch": 48,
      "velocity": 110
    },
    {
      "time": 218.0,
      "lane": 0,
      "pitch": 36,
      "velocity": 110
    },
    {
      "time": 218.0,
      "lane": 0,
      "pitch": 48,
      "velocity": 110
    },
    {
      "time": 218.5,
      "lane": 0,
      "pitch": 36,
      "velocity": 110
    },
    {
      "time": 218.5,
      "lane": 0,
      "pitch": 48,
      "velocity": 110
    },
    {
      "time": 219.0,
      "lane": 1,
      "pitch": 31,
      "velocity": 110
    },
    {
      "time": 219.0,
      "lane": 1,
      "pitch": 43,
      "velocity": 110
    },
    {
      "time": 220.0,
      "lane": 1,
      "pitch": 31,
      "velocity": 110
    },
    {
      "time": 220.0,
      "lane": 1,
      "pitch": 43,
      "velocity": 110
    },
    {
      "time": 220.5,
      "lane": 1,
      "pitch": 31,
      "velocity": 110
    },
    {
      "time": 220.5,
      "lane": 1,
      "pitch": 43,
      "velocity": 110
    },
    {
      "time": 221.0,
      "lane": 1,
      "pitch": 31,
      "velocity": 110
    },
    {
      "time": 221.0,
      "lane": 1,
      "pitch": 43,
      "velocity": 110
    },
    {
      "time": 221.5,
      "lane": 1,
      "pitch": 31,
      "velocity": 110
    },
    {
      "time": 221.5,
      "lane": 1,
      "pitch": 43,
      "velocity": 110
    },
    {
      "time": 222.0,
      "lane": 0,
      "pitch": 33,
      "velocity": 110
    },
    {
      "time": 222.0,
      "lane": 0,
      "pitch": 45,
      "velocity": 110
    },
    {
      "time": 223.0,
      "lane": 0,
      "pitch": 33,
      "velocity": 110
    },
    {
      "time": 223.0,
      "lane": 0,
      "pitch": 45,
      "velocity": 110
    },
    {
      "time": 223.5,
      "lane": 0,
      "pitch": 33,
      "velocity": 110
    },
    {
      "time": 223.5,
      "lane": 0,
      "pitch": 45,
      "velocity": 110
    },
    {
      "time": 224.0,
      "lane": 0,
      "pitch": 33,
      "velocity": 110
    },
    {
      "time": 224.0,
      "lane": 0,
      "pitch": 45,
      "velocity": 110
    },
    {
      "time": 224.5,
      "lane": 0,
      "pitch": 33,
      "velocity": 110
    },
    {
      "time": 224.5,
      "lane": 0,
      "pitch": 45,
      "velocity": 110
    },
    {
      "time": 225.0,
      "lane": 0,
      "pitch": 33,
      "velocity": 110
    },
    {
      "time": 225.0,
      "lane": 0,
      "pitch": 45,
      "velocity": 110
    },
    {
      "time": 226.0,
      "lane": 0,
      "pitch": 33,
      "velocity": 110
    },
    {
      "time": 226.0,
      "lane": 0,
      "pitch": 45,
      "velocity": 110
    },
    {
      "time": 226.5,
      "lane": 0,
      "pitch": 33,
      "velocity": 110
    },
    {
      "time": 226.5,
      "lane": 0,
      "pitch": 45,
      "velocity": 110
    },
    {
      "time": 227.0,
      "lane": 0,
      "pitch": 33,
      "velocity": 110
    },
    {
      "time": 227.0,
      "lane": 0,
      "pitch": 45,
      "velocity": 110
    },
    {
      "time": 227.5,
      "lane": 0,
      "pitch": 33,
      "velocity": 110
    },
    {
      "time": 227.5,
      "lane": 0,
      "pitch": 45,
      "velocity": 110
    },
    {
      "time": 228.0,
      "lane": 2,
      "pitch": 38,
      "velocity": 110
    },
    {
      "time": 228.0,
      "lane": 2,
      "pitch": 50,
      "velocity": 110
    },
    {
      "time": 229.0,
      "lane": 2,
      "pitch": 38,
      "velocity": 110
    },
    {
      "time": 229.0,
      "lane": 2,
      "pitch": 50,
      "velocity": 110
    },
    {
      "time": 229.5,
      "lane": 2,
      "pitch": 38,
      "velocity": 110
    },
    {
      "time": 229.5,
      "lane": 2,
      "pitch": 50,
      "velocity": 110
    },
    {
      "time": 230.0,
      "lane": 2,
      "pitch": 38,
      "velocity": 110
    },
    {
      "time": 230.0,
      "lane": 2,
      "pitch": 50,
      "velocity": 110
    },
    {
      "time": 230.5,
      "lane": 2,
      "pitch": 38,
      "velocity": 110
    },
    {
      "time": 230.5,
      "lane": 2,
      "pitch": 50,
      "velocity": 110
    },
    {
      "time": 231.0,
      "lane": 2,
      "pitch": 38,
      "velocity": 110
    },
    {
      "time": 231.0,
      "lane": 2,
      "pitch": 50,
      "velocity": 110
    },
    {
      "time": 232.0,
      "lane": 2,
      "pitch": 38,
      "velocity": 110
    },
    {
      "time": 232.0,
      "lane": 2,
      "pitch": 50,
      "velocity": 110
    },
    {
      "time": 232.5,
      "lane": 2,
      "pitch": 38,
      "velocity": 110
    },
    {
      "time": 232.5,
      "lane": 2,
      "pitch": 50,
      "velocity": 110
    },
    {
      "time": 233.0,
      "lane": 2,
      "pitch": 38,
      "velocity": 110
    },
    {
      "time": 233.0,
      "lane": 2,
      "pitch": 50,
      "velocity": 110
    },
    {
      "time": 233.5,
      "lane": 2,
      "pitch": 38,
      "velocity": 110
    },
    {
      "time": 233.5,
      "lane": 2,
      "pitch": 50,
      "velocity": 110
    },
    {
      "time": 234.0,
      "lane": 1,
      "pitch": 34,
      "velocity": 110
    },
    {
      "time": 234.0,
      "lane": 1,
      "pitch": 46,
      "velocity": 110
    },
    {
      "time": 235.0,
      "lane": 1,
      "pitch": 34,
      "velocity": 110
    },
    {
      "time": 235.0,
      "lane": 1,
      "pitch": 46,
      "velocity": 110
    },
    {
      "time": 235.5,
      "lane": 1,
      "pitch": 34,
      "velocity": 110
    },
    {
      "time": 235.5,
      "lane": 1,
      "pitch": 46,
      "velocity": 110
    },
    {
      "time": 236.0,
      "lane": 1,
      "pitch": 34,
      "velocity": 110
    },
    {
      "time": 236.0,
      "lane": 1,
      "pitch": 46,
      "velocity": 110
    },
    {
      "time": 236.5,
      "lane": 1,
      "pitch": 34,
      "velocity": 110
    },
    {
      "time": 236.5,
      "lane": 1,
      "pitch": 46,
      "velocity": 110
    },
    {
      "time": 237.0,
      "lane": 2,
      "pitch": 41,
      "velocity": 110
    },
    {
      "time": 237.0,
      "lane": 2,
      "pitch": 53,
      "velocity": 110
    },
    {
      "time": 238.0,
      "lane": 2,
      "pitch": 41,
      "velocity": 110
    },
    {
      "time": 238.0,
      "lane": 2,
      "pitch": 53,
      "velocity": 110
    },
    {
      "time": 238.5,
      "lane": 2,
      "pitch": 41,
      "velocity": 110
    },
    {
      "time": 238.5,
      "lane": 2,
      "pitch": 53,
      "velocity": 110
    },
    {
      "time": 239.0,
      "lane": 2,
      "pitch": 41,
      "velocity": 110
    },
    {
      "time": 239.0,
      "lane": 2,
      "pitch": 53,
      "velocity": 110
    },
    {
      "time": 239.5,
      "lane": 2,
      "pitch": 41,
      "velocity": 110
    },
    {
      "time": 239.5,
      "lane": 2,
      "pitch": 53,
      "velocity": 110
    },
    {
      "time": 240.0,
      "lane": 0,
      "pitch": 36,
      "velocity": 110
    },
    {
      "time": 240.0,
      "lane": 0,
      "pitch": 48,
      "velocity": 110
    },
    {
      "time": 241.0,
      "lane": 0,
      "pitch": 36,
      "velocity": 110
    },
    {
      "time": 241.0,
      "lane": 0,
      "pitch": 48,
      "velocity": 110
    },
    {
      "time": 241.5,
      "lane": 0,
      "pitch": 36,
      "velocity": 110
    },
    {
      "time": 241.5,
      "lane": 0,
      "pitch": 48,
      "velocity": 110
    },
    {
      "time": 242.0,
      "lane": 0,
      "pitch": 36,
      "velocity": 110
    },
    {
      "time": 242.0,
      "lane": 0,
      "pitch": 48,
      "velocity": 110
    },
    {
      "time": 242.5,
      "lane": 0,
      "pitch": 36,
      "velocity": 110
    },
    {
      "time": 242.5,
      "lane": 0,
      "pitch": 48,
      "velocity": 110
    },
    {
      "time": 243.0,
      "lane": 1,
      "pitch": 31,
      "velocity": 110
    },
    {
      "time": 243.0,
      "lane": 1,
      "pitch": 43,
      "velocity": 110
    },
    {
      "time": 244.0,
      "lane": 1,
      "pitch": 31,
      "velocity": 110
    },
    {
      "time": 244.0,
      "lane": 1,
      "pitch": 43,
      "velocity": 110
    },
    {
      "time": 244.5,
      "lane": 1,
      "pitch": 31,
      "velocity": 110
    },
    {
      "time": 244.5,
      "lane": 1,
      "pitch": 43,
      "velocity": 110
    },
    {
      "time": 245.0,
      "lane": 1,
      "pitch": 31,
      "velocity": 110
    },
    {
      "time": 245.0,
      "lane": 1,
      "pitch": 43,
      "velocity": 110
    },
    {
      "time": 245.5,
      "lane": 1,
      "pitch": 31,
      "velocity": 110
    },
    {
      "time": 245.5,
      "lane": 1,
      "pitch": 43,
      "velocity": 110
    },
    {
      "time": 246.0,
      "lane": 0,
      "pitch": 33,
      "velocity": 110
    },
    {
      "time": 246.0,
      "lane": 0,
      "pitch": 45,
      "velocity": 110
    },
    {
      "time": 247.0,
      "lane": 0,
      "pitch": 33,
      "velocity": 110
    },
    {
      "time": 247.0,
      "lane": 0,
      "pitch": 45,
      "velocity": 110
    },
    {
      "time": 247.5,
      "lane": 0,
      "pitch": 33,
      "velocity": 110
    },
    {
      "time": 247.5,
      "lane": 0,
      "pitch": 45,
      "velocity": 110
    },
    {
      "time": 248.0,
      "lane": 0,
      "pitch": 33,
      "velocity": 110
    },
    {
      "time": 248.0,
      "lane": 0,
      "pitch": 45,
      "velocity": 110
    },
    {
      "time": 248.5,
      "lane": 0,
      "pitch": 33,
      "velocity": 110
    },
    {
      "time": 248.5,
      "lane": 0,
      "pitch": 45,
      "velocity": 110
    },
    {
      "time": 249.0,
      "lane": 0,
      "pitch": 33,
      "velocity": 110
    },
    {
      "time": 249.0,
      "lane": 0,
      "pitch": 45,
      "velocity": 110
    },
    {
      "time": 250.0,
      "lane": 0,
      "pitch": 33,
      "velocity": 110
    },
    {
      "time": 250.0,
      "lane": 0,
      "pitch": 45,
      "velocity": 110
    },
    {
      "time": 250.5,
      "lane": 0,
      "pitch": 33,
      "velocity": 110
    },
    {
      "time": 250.5,
      "lane": 0,
      "pitch": 45,
      "velocity": 110
    },
    {
      "time": 251.0,
      "lane": 0,
      "pitch": 33,
      "velocity": 110
    },
    {
      "time": 251.0,
      "lane": 0,
      "pitch": 45,
      "velocity": 110
    },
    {
      "time": 251.5,
      "lane": 0,
      "pitch": 33,
      "velocity": 110
    },
    {
      "time": 251.5,
      "lane": 0,
      "pitch": 45,
      "velocity": 110
    },
    {
      "time": 252.0,
      "lane": 2,
      "pitch": 38,
      "velocity": 110
    },
    {
      "time": 252.0,
      "lane": 2,
      "pitch": 50,
      "velocity": 110
    },
    {
      "time": 253.5,
      "lane": 2,
      "pitch": 38,
      "velocity": 110
    },
    {
      "time": 253.5,
      "lane": 2,
      "pitch": 50,
      "velocity": 110
    },
    {
      "time": 254.0,
      "lane": 2,
      "pitch": 38,
      "velocity": 110
    },
    {
      "time": 254.0,
      "lane": 2,
      "pitch": 50,
      "velocity": 110
    },
    {
      "time": 254.5,
      "lane": 2,
      "pitch": 38,
      "velocity": 110
    },
    {
      "time": 254.5,
      "lane": 2,
      "pitch": 50,
      "velocity": 110
    },
    {
      "time": 255.0,
      "lane": 2,
      "pitch": 26,
      "velocity": 110
    },
    {
      "time": 255.0,
      "lane": 2,
      "pitch": 38,
      "velocity": 110
    }
  ]
}